<?xml version="1.0" encoding="UTF-8" standalone="no" ?>
<svg viewBox="0 0 32 32" version="1.1" width="32px" height="32px" xmlns="http://www.w3.org/2000/svg" xmlns:xlink="http://www.w3.org/1999/xlink">
  <path d="M9.16064453,20.575 L0,22.85625 L2.31689453,31.98125 L11.4418945,31.98125 L6.87939453,25.1375 L9.16064453,20.575 Z M22.8481445,20.575 L25.1293945,25.1375 L20.5668945,31.98125 L29.6918945,31.98125 L31.9731445,22.85625 L22.8481445,20.575 Z M19.8540039,20.575 L12.1547852,20.575 L13.7231445,24.2107422 L11.4418945,31.98125 L20.5668945,31.98125 L18.2856445,24.2107422 L19.8540039,20.575 Z M22.8481445,13.73125 L9.16064453,13.73125 L4.59814453,16.0125 L27.4106445,16.0125 L22.8481445,13.73125 Z M20.5668945,4.60624999 L16.0043945,6.88749999 L11.4418945,4.60624999 L9.16064453,11.45 L22.8481445,11.45 L20.5668945,4.60624999 Z" fill="#4A4A4A"></path>
</svg>