<?xml version="1.0" encoding="UTF-8" standalone="no"?>
<svg width="1267px" height="344px" viewBox="0 0 1267 344" version="1.1" xmlns="http://www.w3.org/2000/svg" xmlns:xlink="http://www.w3.org/1999/xlink" xmlns:sketch="http://www.bohemiancoding.com/sketch/ns">
    <title>Untitled</title>
    <description>Created with Sketch (http://www.bohemiancoding.com/sketch)</description>
    <defs></defs>
    <g id="Page-1" stroke="none" stroke-width="1" fill="none" fill-rule="evenodd" sketch:type="MSPage">
        <g id="Group" sketch:type="MSLayerGroup">
            <path d="M113,12.6463208 C114.421,10.4673208 116.171,14.5473208 113.57,13.9363208 C113.43,13.6073208 113.141,12.9663208 113,12.6463208" id="Fill-1452" fill="#FFFFFF" sketch:type="MSShapeGroup"></path>
            <path d="M814.46,29.241379 C828.779,21.911379 844.32,17.151379 860.1,14.181379 C868.849,13.740379 877.589,15.651379 886.36,15.291379 C896.83,14.841379 907.299,13.890379 917.8,14.010379 C932.69,14.921379 947.31,17.961379 961.979,20.541379 C991.73,24.660379 1022.68,31.040379 1052.02,21.201379 C1049.78,27.180379 1043.27,29.550379 1037.7,31.231379 C1031.71,31.890379 1025.839,30.390379 1019.97,29.560379 C1019.54,30.540379 1019.13,31.531379 1018.73,32.520379 C1024.96,36.901379 1031.02,41.651379 1035.819,47.640379 C1023.409,55.421379 1007.669,52.641379 994.399,49.040379 C982.88,44.010379 971.95,37.421379 959.75,34.081379 C951.859,32.041379 943.21,33.551379 935.739,29.950379 C929.77,27.281379 922.919,27.220379 916.76,29.261379 C918.72,36.441379 923.819,44.421379 932.24,44.271379 C943.67,43.921379 955.96,35.991379 966.879,42.660379 C966.889,43.401379 966.91,44.880379 966.919,45.621379 C962.739,48.970379 956.63,51.020379 955.569,57.051379 C960.28,57.180379 964.95,57.051379 969.7,57.321379 C981.569,61.271379 990.95,72.120379 992.56,84.570379 C990.859,90.611379 984.31,94.071379 978.509,95.070379 C970.62,96.391379 964.099,91.061379 956.74,89.511379 C960.859,101.391379 962.02,114.090379 959.08,126.450379 C959.069,132.360379 955.68,137.391379 951.64,141.370379 C946.499,146.431379 940.89,151.320379 934.109,154.050379 C933.71,144.681379 939.66,136.881379 941.04,127.860379 C932.24,132.160379 928.66,143.021379 918.95,145.751379 C910.02,148.001379 900.749,144.861379 892.99,140.550379 C887.15,136.450379 883.979,129.751379 881.869,123.141379 C886.279,125.100379 890.249,127.870379 894.68,129.821379 C904.05,132.220379 914.71,129.180379 920.97,121.711379 C926.37,115.171379 931.7,107.760379 932.41,99.021379 C934.799,84.540379 926.43,70.871379 916.52,61.071379 C907.12,52.320379 896.85,43.500379 884.04,40.411379 C875.97,37.660379 867.47,36.480379 859.309,34.120379 C853.82,32.601379 849.04,28.310379 843.02,28.911379 C837.25,29.750379 831.85,32.261379 826.28,33.801379 C825.889,32.051379 825.1,28.551379 824.71,26.801379 C811.46,30.051379 804.91,43.131379 794,49.930379 C794.29,46.810379 793.95,43.541379 794.97,40.551379 C800.489,35.301379 807.759,32.620379 814.46,29.241379" id="Fill-1453" fill="#FFFFFF" sketch:type="MSShapeGroup"></path>
            <path d="M611.84993,50.999 C613.14893,37.12 618.24993,22.52 629.87993,14 C634.85893,19.029 640.61993,23.56 644.45893,29.6 C647.29993,35.75 646.42993,43.019 649.24993,49.17 C650.81893,48.99 652.76993,49.05 653.77993,47.57 C658.03993,42.63 659.32893,34.209 667.62993,34.2 C665.85993,48.64 659.62893,62.729 649.51993,73.28 C646.33993,76.7 643.73993,80.68 642.37893,85.19 C640.89893,89.429 644.05893,92.48 646.16893,95.55 C657.45993,90.83 660.88893,77.979 669.37893,70.139 C674.17993,64.85 682.00993,65.099 688.35993,63.22 C691.96993,62.26 694.34993,66.32 694.75993,69.37 C698.34993,85.53 687.90993,101.41 674.37993,109.289 C674.30993,110.44 674.23993,111.599 674.18993,112.749 C679.34993,113.55 684.67993,114.16 689.36993,116.66 C685.36893,120.589 680.01993,123.4 674.21993,122.6 C663.01993,121.93 653.70993,114.91 643.00893,112.36 C636.42993,130.06 634.47993,148.96 630.55893,167.33 C628.33993,184.629 626.66993,201.999 624.71993,219.33 C623.84993,205.33 623.61993,191.3 622.86993,177.29 C622.82993,159.98 622.65993,142.28 617.59893,125.589 C614.85993,119.97 611.42993,112.089 604.45993,111.01 C598.75993,116.299 594.44993,125.309 585.20893,123.84 C576.26993,124.34 567.77993,118.39 564.57993,110.18 C568.66893,109.54 572.77993,108.98 576.88893,108.4 C572.56993,103.379 566.40993,99.149 564.87993,92.32 C563.72893,82.979 563.36993,73.25 565.91893,64.1 C573.74893,65.34 580.13993,70.23 586.11993,75.08 C589.22893,77.369 591.11993,80.82 593.01993,84.09 C595.00993,87.99 594.68893,92.649 596.70993,96.539 C599.76993,99.629 604.60993,99.939 608.44993,101.519 C609.60993,94.67 611.70993,87.05 607.14893,81.01 C601.85893,72.8 596.56893,64.53 592.92993,55.43 C590.08893,49.1 591.92993,42.3 593.91893,36.059 C601.88993,38.35 605.90993,45.939 611.84993,50.999" id="Fill-1454" fill="#FFFFFF" sketch:type="MSShapeGroup"></path>
            <path d="M122,19 C123.83,19.17 125.651,19.349 127.481,19.55 C125.801,20.639 124.111,21.69 122.401,22.72 C122.301,21.79 122.1,19.929 122,19" id="Fill-1455" fill="#FFFFFF" sketch:type="MSShapeGroup"></path>
            <path d="M288.62,24.5088969 C304.111,23.8488969 319.491,19.1088969 335.051,20.9188969 C342.55,21.1488969 350.011,19.6478969 357.521,20.0778969 C379.841,22.7988969 401.46,29.5588969 422.101,38.3188969 C425.24,39.7488969 428.181,41.5788969 431.06,43.4688969 C422.82,43.9188969 414.241,42.0588969 406.261,44.8188969 C395.201,48.3588969 383.34,44.5488969 372.02,46.3188969 C364.481,47.7588969 356.75,48.7388969 349.631,51.7488969 C339.031,55.4088969 330.481,63.0978969 322.021,70.1878969 C314.75,76.2078969 311.321,85.3488969 309.201,94.2488969 C306.05,107.528897 310.691,121.048897 316.701,132.788897 C320.4,140.077897 326.981,145.717897 334.34,149.118897 C344.12,152.667897 355.391,150.858897 363.35,144.138897 C358.841,150.958897 351.531,155.617897 343.841,158.038897 C328.591,160.468897 309.591,159.478897 299.53,145.897897 C293.041,140.698897 297.271,130.198897 290.24,125.658897 C286.801,132.097897 286.951,142.008897 278.22,143.827897 C275.731,136.568897 273.521,128.537897 275.81,120.948897 C277.771,115.437897 280.161,110.077897 282.92,104.918897 C286.601,98.2188969 292.931,93.0688969 295.151,85.5888969 C295.831,81.9388969 291.47,78.6688969 288.65,81.8088969 C281.301,87.7888969 269.94,92.8278969 261.471,86.1488969 C263.611,83.1088969 265.79,80.0578969 267.17,76.5778969 C260.351,75.6888969 253.181,76.8888969 246.551,74.8988969 C243.44,73.3978969 237.551,69.8888969 240.65,65.8188969 C244.161,61.3878969 249.751,59.2788969 254.69,56.8688969 C263.921,52.1988969 274.421,55.4478969 284.281,55.2478969 C281.441,48.5578969 278.21,42.0288969 276.201,35.0178969 C274.121,35.9288969 271.861,36.6188969 270.11,38.1188969 C268.911,40.6678969 268.59,43.5288969 267.821,46.2288969 C255.251,48.2588969 244.59,55.5188969 234.281,62.4888969 C230.06,65.9988969 233.4,71.7378969 234.42,76.0578969 C228.371,72.1788969 223.661,66.7188969 220.85,60.0688969 C226.34,56.0988969 231.611,51.2088969 238.741,50.6478969 C241.58,50.5888969 242.641,47.8688969 243.77,45.7388969 C235.641,44.9778969 227.441,45.8788969 219.341,45.0078969 C210.751,41.4888969 205.49,32.8488969 203,24.2288969 C217.421,23.8788969 231.21,29.5978969 245.67,28.7988969 C260.141,28.9378969 274.151,24.6288969 288.62,24.5088969 L288.62,24.5088969 Z M309.251,39.5288969 L309.251,39.5288969 C299.28,36.5488969 289.04,33.9778969 278.561,34.4888969 C278.741,35.7078969 278.931,36.9388969 279.131,38.1588969 C286.151,38.4588969 293.33,39.5388969 299.591,42.9288969 C305.67,45.6078969 311.521,50.3788969 318.641,48.8088969 C323.971,49.1288969 330.42,46.4688969 331.501,40.6988969 C331.451,37.2078969 328.46,34.2888969 325.34,33.1388969 C319.17,31.7988969 312.65,34.2188969 309.251,39.5288969 L309.251,39.5288969 Z" id="Fill-1456" fill="#FFFFFF" sketch:type="MSShapeGroup"></path>
            <path d="M1128.35171,21.3906821 C1129.61171,20.1216821 1131.73171,22.2416821 1130.47071,23.5116821 C1129.24171,24.6816821 1127.17071,22.6116821 1128.35171,21.3906821" id="Fill-1457" fill="#FFFFFF" sketch:type="MSShapeGroup"></path>
            <path d="M134.881,24 C137.061,24.47 139.231,24.97 141.401,25.48 C139.901,28.5 138.341,31.48 136.691,34.419 C135.121,33.71 133.561,33 132,32.27 C132.991,29.52 133.91,26.75 134.881,24" id="Fill-1458" fill="#FFFFFF" sketch:type="MSShapeGroup"></path>
            <path d="M690.861,27.3219076 C696.5,26.1119076 702.201,28.4909076 706.85,31.4909076 C711.751,36.8419076 715.76,44.1119076 714.721,51.5819076 C713.78,64.0019076 710.681,76.3019076 711.66,88.8219076 C712.601,94.3519076 714.911,99.4919076 716.681,104.771908 C708.791,111.140908 701.111,117.841908 692.681,123.501908 C693.98,120.421908 695.361,117.371908 696.641,114.271908 C693.861,111.920908 690.77,109.891908 688.321,107.201908 C692.84,99.8609076 698.761,93.1409076 700.71,84.4819076 C701.951,75.5409076 702.211,66.0319076 698.851,57.5019076 C686.541,56.7119076 674.83,60.2409076 664,65.7009076 C668.551,56.1119076 673.28,46.5119076 675.421,36.0319076 C677.611,36.7919076 679.801,37.5219076 682.02,38.2019076 C684.881,34.5219076 687.031,30.1009076 690.861,27.3219076" id="Fill-1459" fill="#FFFFFF" sketch:type="MSShapeGroup"></path>
            <path d="M1122.49152,27.48606 C1123.71052,26.04606 1125.86052,28.14606 1124.38152,29.37606 C1123.14152,30.86606 1121.04152,28.71606 1122.49152,27.48606" id="Fill-1460" fill="#FFFFFF" sketch:type="MSShapeGroup"></path>
            <path d="M1114.71128,33 C1117.31228,33.16 1118.04228,36.48 1115.35228,37.46 C1112.73128,37.29 1112.00128,33.98 1114.71128,33" id="Fill-1461" fill="#FFFFFF" sketch:type="MSShapeGroup"></path>
            <path d="M146.28,36 C148.23,37.539 150.43,38.88 151.85,40.97 C153.049,46.48 144.76,51.47 141,46.44 C142.03,42.649 144.43,39.42 146.28,36" id="Fill-1462" fill="#FFFFFF" sketch:type="MSShapeGroup"></path>
            <path d="M184,41 L186.999,41 L186.999,44 L184,44 L184,41" id="Fill-1463" fill="#FFFFFF" sketch:type="MSShapeGroup"></path>
            <path d="M316,43.48 C318.65,42.861 321.219,42.4 323.96,42 C321.359,42.63 318.59,43.041 316,43.48" id="Fill-1464" fill="#FFFFFF" sketch:type="MSShapeGroup"></path>
            <path d="M1105,46.17 C1106.919,45.71 1108.829,45.15 1110.82,45 C1111.57,46.26 1112.13,47.629 1112.73,48.979 C1110.98,49.08 1107.48,49.28 1105.73,49.37 C1105.549,48.57 1105.19,46.97 1105,46.17" id="Fill-1465" fill="#FFFFFF" sketch:type="MSShapeGroup"></path>
            <path d="M149,60.38 C149.8,56.16 152.159,52.61 155.45,50 C157.16,51.42 160.58,54.26 162.28,55.68 C161.129,57.69 160.379,59.99 158.87,61.809 C155.52,61.76 152.24,61.19 149,60.38" id="Fill-1466" fill="#FFFFFF" sketch:type="MSShapeGroup"></path>
            <path d="M1104.3517,61.3916002 C1105.6107,60.1206002 1107.7317,62.2416002 1106.4717,63.5116002 C1105.2417,64.6816002 1103.1707,62.6106002 1104.3517,61.3916002" id="Fill-1467" fill="#FFFFFF" sketch:type="MSShapeGroup"></path>
            <path d="M909.03,63 C910.32,64.819 911.7,66.61 912.791,68.59 C909.141,68.71 905.61,68.59 902,68.37 C904.38,66.62 906.72,64.84 909.03,63" id="Fill-1468" fill="#FFFFFF" sketch:type="MSShapeGroup"></path>
            <path d="M341,64.6472227 C342.42,62.4662227 344.171,66.5472227 341.571,65.9372227 C341.431,65.6062227 341.141,64.9672227 341,64.6472227" id="Fill-1469" fill="#FFFFFF" sketch:type="MSShapeGroup"></path>
            <path d="M1064.72,66.3062103 C1072.759,65.1062103 1080.6,67.8052103 1088.6,68.0262103 C1091.139,74.3762103 1094.889,80.1352103 1097.669,86.3862103 C1098.9,89.0562103 1101.779,90.2462103 1104.109,91.7562103 C1107.36,83.6662103 1108.29,73.5062103 1115.819,67.9262103 C1117,71.8852103 1118.57,75.7752103 1120.54,79.4262103 C1114.02,87.9462103 1107.379,96.4762103 1102.62,106.13521 C1094.44,119.27521 1083.229,131.55521 1068.289,136.80521 C1056.32,142.17621 1042.89,142.72521 1030,142.57621 C1045.899,141.78521 1062.52,137.92621 1074.71,127.10621 C1083.779,118.58621 1091.479,106.92621 1090.68,93.9752103 C1090.13,85.3852103 1083.019,79.1762103 1076.77,74.1552103 C1070.169,71.4852103 1062.72,72.0462103 1055.799,71.0352103 C1058.619,69.2262103 1061.439,67.2062103 1064.72,66.3062103" id="Fill-1470" fill="#FFFFFF" sketch:type="MSShapeGroup"></path>
            <path d="M160.419,67 C161.21,67.011 162.79,67.031 163.58,67.04 C163.479,67.681 163.289,68.971 163.19,69.621 C160.79,70.951 158.399,72.31 156,73.66 C157.45,71.421 158.93,69.211 160.419,67" id="Fill-1471" fill="#FFFFFF" sketch:type="MSShapeGroup"></path>
            <path d="M343.6,66 C350.62,66.459 356.661,70.109 362.801,73.129 C360.67,73.669 358.561,74.22 356.461,74.799 C364.15,80.57 371.9,86.91 376.311,95.679 C378.691,101.2 380.83,106.839 382.741,112.55 C385.45,119.88 382.421,127.68 380.991,134.95 C376.531,151.5 360.351,162.379 344.21,165.629 C332.75,166.97 320.971,167.36 309.571,165.519 C303.331,162.019 296.931,157.82 293,151.65 C299.191,155.259 304.741,160.1 311.611,162.41 C323.801,166.4 337.45,166.729 349.54,162.249 C357.02,157.83 366.201,153.94 369.44,145.17 C373.911,135.11 370.681,119.679 359.241,115.939 C359.311,121.47 360.351,126.94 360.481,132.47 C359.41,140.499 350.521,146.749 342.59,144.72 C330.741,141.859 321.201,132.05 317.871,120.429 C315.85,112.729 312.651,104.629 314.9,96.58 C316.42,86.11 323.701,78.05 330.011,70.1 C337.891,70.58 345.471,72.879 353.221,74.19 C353.42,72.979 353.631,71.78 353.841,70.58 C350.421,69.06 347,67.529 343.6,66 L343.6,66 Z M331.141,89.81 L331.141,89.81 C325.501,91.16 327.071,98.97 325.951,102.95 C331.091,104.65 338.221,106.96 342.09,101.78 C345.201,95.609 338,86.569 331.141,89.81 L331.141,89.81 Z" id="Fill-1472" fill="#FFFFFF" sketch:type="MSShapeGroup"></path>
            <path d="M1127.799,67 C1135.079,67.441 1141.89,71.061 1146.24,76.981 C1138.48,77.061 1130.72,76.981 1123,77.44 C1124.93,74.121 1126.289,70.531 1127.799,67" id="Fill-1473" fill="#FFFFFF" sketch:type="MSShapeGroup"></path>
            <path d="M909.340423,72.1504177 C913.859423,71.5614177 920.529423,72.5114177 920.900423,78.4504177 C923.390423,86.0914177 927.410423,94.2614177 924.760423,102.450418 C921.640423,112.661418 914.150423,122.590418 903.220423,124.920418 C895.069423,127.211418 886.950423,120.731418 884.690423,113.271418 C884.230423,108.000418 884.430423,102.711418 883.670423,97.4804177 C877.770423,101.451418 875.660423,108.750418 875.199423,115.480418 C875.609423,124.960418 879.570423,134.250418 886.950423,140.421418 C896.069423,151.860418 912.419423,149.991418 925.150423,152.381418 C928.090423,155.001418 927.730423,159.581418 928.810423,163.200418 C913.370423,165.711418 895.469423,166.351418 882.670423,155.761418 C871.610423,149.230418 865.099423,137.091418 862.579423,124.811418 C860.380423,114.130418 864.890423,103.890418 868.570423,94.1504177 C871.789423,88.7014177 876.060423,83.4604177 881.950423,80.7704177 C890.749423,77.0214177 899.819423,73.5604177 909.340423,72.1504177 L909.340423,72.1504177 Z M894.239423,93.7614177 L894.239423,93.7614177 C894.480423,96.6214177 895.620423,99.3214177 896.299423,102.110418 C901.190423,101.211418 907.300423,101.640418 910.280423,96.8514177 C913.930423,93.1614177 910.140423,87.5114177 906.030423,86.2214177 C900.759423,83.9514177 896.409423,89.7814177 894.239423,93.7614177 L894.239423,93.7614177 Z" id="Fill-1474" fill="#FFFFFF" sketch:type="MSShapeGroup"></path>
            <path d="M363.96,74 C374.59,77.18 381.82,86.24 387.089,95.49 C395.19,111.7 395.26,132.191 385.72,147.811 C382.22,151.95 378.34,155.771 374.819,159.891 C365.929,168.191 353.49,170.041 342,172.061 C356.639,168.51 369.859,160.13 379.95,149.03 C389.45,137.51 389.6,121.501 387.029,107.471 C383.71,93.931 374.32,82.891 363.96,74" id="Fill-1475" fill="#FFFFFF" sketch:type="MSShapeGroup"></path>
            <path d="M999,74.6468356 C1000.411,72.4668356 1002.161,76.5468356 999.57,75.9358356 C999.431,75.6068356 999.14,74.9668356 999,74.6468356" id="Fill-1476" fill="#FFFFFF" sketch:type="MSShapeGroup"></path>
            <path d="M253.91,81 C250.94,89.951 240.85,92.741 234.239,98.32 C219.85,109.491 202.52,116.161 185,120.61 C189.299,114.431 197.86,114.241 204.02,110.87 C221.68,102.721 235.84,88.361 253.91,81" id="Fill-1477" fill="#FFFFFF" sketch:type="MSShapeGroup"></path>
            <path d="M868.491538,83.486204 C869.711538,82.046204 871.860538,84.145204 870.380538,85.375204 C869.141538,86.865204 867.041538,84.716204 868.491538,83.486204" id="Fill-1478" fill="#FFFFFF" sketch:type="MSShapeGroup"></path>
            <path d="M1001.29,85 C1009.661,88.719 1018.241,91.959 1027.15,94.16 C1032.461,95.559 1035.891,100.28 1040.921,102.24 C1052.291,106.95 1063.84,111.219 1075.181,116.03 C1075.221,116.75 1075.311,118.2 1075.36,118.92 C1061.041,134.59 1036.801,140.78 1017.121,132.189 C1009.48,128.76 1001.44,125.64 994.96,120.189 C990.181,115.23 985.851,109.839 982,104.13 C990.391,100.269 997.901,93.78 1001.29,85 L1001.29,85 Z M1014.331,111.13 L1014.331,111.13 C1011.881,118.669 1021.891,120.01 1026.681,121.24 C1028.161,117.33 1033.411,110.16 1027.971,107.19 C1023.261,104.22 1017.411,107.33 1014.331,111.13 L1014.331,111.13 Z" id="Fill-1479" fill="#FFFFFF" sketch:type="MSShapeGroup"></path>
            <path d="M746.526041,87 C750.447041,87.78 744.227041,90.439 746.526041,87" id="Fill-1480" fill="#FFFFFF" sketch:type="MSShapeGroup"></path>
            <path d="M864.793797,87 C865.583797,87.01 867.172797,87.039 867.963797,87.05 C860.333797,98.06 856.173797,111.35 857.332797,124.85 C856.313797,131.1 859.783797,136.479 862.853797,141.529 C868.763797,150.7 876.763797,158.73 886.372797,164 C896.063797,168.129 906.782797,168.969 917.182797,169.539 C925.563797,170.18 934.122797,167.929 941.102797,163.269 C945.172797,160.18 946.303797,154.85 949.952797,151.419 C953.122797,148.79 956.953797,147.109 960.073797,144.41 C963.162797,141.01 964.153797,136.31 965.822797,132.17 C969.073797,122.69 966.633797,111.92 971.193797,102.859 C972.912797,108.339 974.653797,113.96 975.003797,119.719 C974.273797,127.04 972.553797,134.31 969.693797,141.09 C965.543797,147.129 959.892797,151.92 954.863797,157.19 C950.083797,161.73 945.623797,167.499 938.822797,168.98 C924.572797,171.6 909.903797,174.549 895.433797,171.94 C887.943797,170.6 881.222797,166.779 875.212797,162.279 C864.053797,155.969 860.223797,142.73 855.382797,131.72 C851.843797,124.949 852.803797,117.199 854.683797,110.109 C856.262797,101.68 861.873797,94.92 864.793797,87" id="Fill-1481" fill="#FFFFFF" sketch:type="MSShapeGroup"></path>
            <path d="M243.279,99.99 C247.93,97.169 252.4,93.699 257.589,92 C264.83,94.239 272.35,95.239 279.929,95.69 C275.37,104.93 268.08,112.33 261.419,120.05 C258.339,123.59 253.839,125.29 249.86,127.55 C241.29,132.48 231.53,135.58 221.55,135.17 C210.91,136.25 200.95,131.789 192,126.629 C209.68,118.969 227.69,111.52 243.279,99.99 L243.279,99.99 Z M238.81,111.329 L238.81,111.329 C234.74,112.439 233.65,117.12 231.479,120.23 C236.09,122.859 242.759,127.16 247.58,122.129 C251.199,120.739 253.28,114.36 249.899,111.749 C247.01,108.72 242.35,110.42 238.81,111.329 L238.81,111.329 Z" id="Fill-1482" fill="#FFFFFF" sketch:type="MSShapeGroup"></path>
            <path d="M705.873844,117.71 C711.613844,112.479 718.203844,107.949 725.832844,106 C726.132844,107.709 726.733844,111.13 727.033844,112.85 C712.182844,119.81 697.663844,128.15 686.433844,140.3 C678.723844,147.02 673.112844,155.62 666.143844,163.02 C653.862844,175.94 648.442844,193.33 640.272844,208.8 C639.652844,206.66 639.032844,204.52 638.403844,202.4 C636.222844,205.27 634.213844,208.26 632.093844,211.17 C631.153844,180.92 637.382844,150.84 645.963844,121.969 C654.652844,123.049 662.543844,127.58 671.352844,128.15 C677.422844,128.96 683.193844,126.64 689.082844,125.709 C681.943844,133.33 674.243844,140.45 667.793844,148.689 C660.983844,157.299 653.363844,165.57 648.803844,175.679 C647.483844,178.43 647.433844,181.53 647.853844,184.489 C655.812844,174.06 661.542844,162.01 670.202844,152.08 C681.543844,140.079 693.123844,128.24 705.873844,117.71 L705.873844,117.71 Z M640.453844,191.839 L640.453844,191.839 C641.103844,193.27 641.772844,194.709 642.453844,196.14 C643.563844,193.899 644.673844,191.649 645.773844,189.399 C643.983844,190.179 642.213844,191 640.453844,191.839 L640.453844,191.839 Z" id="Fill-1483" fill="#FFFFFF" sketch:type="MSShapeGroup"></path>
            <path d="M240.390682,114.34636 C241.611682,113.17636 243.670682,115.24636 242.511682,116.46636 C241.241682,117.73536 239.121682,115.61636 240.390682,114.34636" id="Fill-1484" fill="#FFFFFF" sketch:type="MSShapeGroup"></path>
            <path d="M980,115 C985.479,118.81 989.819,124.07 995.509,127.61 C1003.59,130.89 1011.729,134.11 1019.38,138.329 C1004.6,135.09 986.38,130.59 980,115" id="Fill-1485" fill="#FFFFFF" sketch:type="MSShapeGroup"></path>
            <path d="M690.439,156.766886 C705.75,148.746886 723.229,145.566886 740.42,146.046886 C754.849,147.296886 768.26,153.256886 781.179,159.436886 C785.57,161.816886 788.62,165.906886 791.959,169.506886 C791.55,170.086886 790.75,171.236886 790.34,171.806886 C786.279,170.435886 782.13,169.206886 778.14,167.646886 C772.369,164.696886 767.08,159.896886 760.28,159.735886 C761.55,165.446886 765.03,171.166886 763.729,177.216886 C755.32,174.156886 749.42,166.746886 741.32,163.075886 C734.289,159.836886 726.8,156.506886 718.86,157.106886 C711.759,159.066886 706.53,165.935886 705.79,173.205886 C714.61,174.766886 723.72,173.356886 732.4,175.946886 C746.29,179.156886 755.54,197.205886 747.489,209.766886 C744.86,214.446886 741.99,220.326886 736.129,221.335886 C723.58,223.905886 714.96,212.725886 704.189,208.636886 C703.81,214.326886 703.47,220.016886 703.179,225.706886 C697.14,223.866886 689.149,223.816886 685.499,217.825886 C679.67,211.406886 677.84,202.285886 678.72,193.866886 C680.469,189.185886 683.39,185.055886 685.34,180.456886 C682.019,179.916886 678.429,178.816886 675.23,180.426886 C668.42,183.945886 662.8,189.335886 656,192.886886 C659.769,183.866886 666.559,176.475886 673.69,169.946886 C679.06,165.296886 684.219,160.276886 690.439,156.766886" id="Fill-1486" fill="#FFFFFF" sketch:type="MSShapeGroup"></path>
            <path d="M282.16846,150 C288.86846,155.39 293.92746,162.779 301.41746,167.239 C305.84846,169.599 310.75746,170.87 315.40746,172.71 C304.09846,171.439 291.35846,167.759 285.06746,157.529 C283.71746,155.23 281.34846,152.91 282.16846,150" id="Fill-1487" fill="#FFFFFF" sketch:type="MSShapeGroup"></path>
            <path d="M632.71558,241.31 C630.30558,231.249 634.42558,221.859 638.49558,213 C637.94558,222.62 636.55558,232.41 632.71558,241.31" id="Fill-1488" fill="#FFFFFF" sketch:type="MSShapeGroup"></path>
            <path d="M623.379,247.06 C623.66,239.039 623.77,231.009 624.15,223 C624.57,231.43 624.78,239.859 624.95,248.309 C647.4,247.37 670,247.7 692.369,249.97 C699.34,251.57 699.009,265.61 690.759,265.239 C672.189,267.129 653.49,265.01 634.86,266 C620.1,266.64 605.47,264.08 590.739,263.71 C580.04,263.14 568.61,264.129 559,258.44 C560.59,255.01 561.799,250.93 565.149,248.789 C569.04,246.939 573.58,247.82 577.739,247.36 C592.95,247.16 608.169,247.55 623.379,247.06" id="Fill-1489" fill="#FFFFFF" sketch:type="MSShapeGroup"></path>
            <path d="M748.351702,256.391711 C749.611702,255.120711 751.730702,257.240711 750.471702,258.511711 C749.241702,259.671711 747.170702,257.611711 748.351702,256.391711" id="Fill-1490" fill="#FFFFFF" sketch:type="MSShapeGroup"></path>
            <path d="M628.389901,272.071 C629.109901,272.051 630.549901,272.02 631.258901,272 C634.258901,277.921 636.629901,285.181 643.218901,288.04 C649.379901,288.67 654.669901,284.35 660.839901,284.511 C666.108901,285.811 670.249901,289.741 672.829901,294.43 C674.529901,300.241 673.348901,306.341 671.249901,311.86 C664.799901,308.821 659.679901,303.5 652.868901,301.161 C651.918901,306.961 651.579901,312.83 651.479901,318.7 C650.389901,328.19 642.189901,335.65 633.289901,337.991 C628.439901,335.8 625.379901,331.011 622.389901,326.841 C617.239901,319.941 618.718901,310.651 617.349901,302.691 C611.638901,304.3 607.729901,309.001 602.459901,311.41 C597.408901,312.051 594.138901,306.58 595.199901,301.981 C594.999901,292.831 602.418901,285.261 610.948901,283.101 C612.799901,284.911 614.649901,286.72 616.569901,288.451 C619.209901,286.471 621.979901,284.591 624.189901,282.131 C625.819901,278.88 627.009901,275.431 628.389901,272.071" id="Fill-1491" fill="#FFFFFF" sketch:type="MSShapeGroup"></path>
            <path d="M74,5.82189037 C80.381,0.982890372 88.891,-1.13810963 96.781,0.601890372 C107.861,2.16189037 118.861,4.45189037 129.59,7.69289037 C132.391,8.48189037 134.27,10.8528904 136.361,12.7218904 C139.691,16.1028904 144.071,18.2128904 147.421,21.5928904 C154.391,30.1818904 156.331,42.6418904 166.49,48.5328904 C168.29,54.1428904 168.841,60.5718904 172.831,65.2328904 C175.081,68.7528904 179.101,70.1928904 182.591,72.0828904 C178.351,76.0818904 173.831,79.9818904 168.371,82.2428904 C167.711,80.2018904 166.411,76.1218904 165.761,74.0828904 C160.901,78.4128904 160.241,85.1628904 159.02,91.1428904 C158.191,91.1828904 156.541,91.2428904 155.711,91.2728904 C152.261,86.1928904 148.721,81.1218904 145.911,75.6618904 C145.501,71.3328904 147.281,66.7218904 144.5,62.7718904 C142.331,55.6428904 134.921,51.7328904 133.631,44.1828904 C132.841,41.3718904 130.191,39.7728904 128.321,37.7418904 C122.78,32.6118904 118.511,26.0928904 112.04,22.0218904 C100.541,14.1828904 87.18,9.88289037 74,5.82189037 L74,5.82189037 Z M112.46,13.2718904 L112.46,13.2718904 C112.601,13.5918904 112.89,14.2328904 113.03,14.5618904 C115.631,15.1728904 113.881,11.0928904 112.46,13.2718904 L112.46,13.2718904 Z M121.85,19.0028904 L121.85,19.0028904 C121.95,19.9318904 122.151,21.7928904 122.251,22.7228904 C123.961,21.6928904 125.651,20.6418904 127.331,19.5528904 C125.501,19.3518904 123.68,19.1728904 121.85,19.0028904 L121.85,19.0028904 Z M135.061,23.9028904 L135.061,23.9028904 C134.09,26.6528904 133.171,29.4228904 132.18,32.1728904 C133.741,32.9028904 135.301,33.6128904 136.871,34.3218904 C138.521,31.3828904 140.081,28.4028904 141.581,25.3828904 C139.411,24.8728904 137.241,24.3728904 135.061,23.9028904 L135.061,23.9028904 Z M146.071,36.5328904 L146.071,36.5328904 C144.221,39.9528904 141.821,43.1818904 140.791,46.9728904 C144.551,52.0028904 152.84,47.0128904 151.641,41.5028904 C150.221,39.4128904 148.021,38.0718904 146.071,36.5328904 L146.071,36.5328904 Z M148.751,60.6128904 L148.751,60.6128904 C151.991,61.4228904 155.271,61.9928904 158.621,62.0418904 C160.13,60.2228904 160.88,57.9228904 162.031,55.9128904 C160.331,54.4928904 156.911,51.6528904 155.201,50.2328904 C151.91,52.8428904 149.551,56.3928904 148.751,60.6128904 L148.751,60.6128904 Z M159.87,67.1418904 L159.87,67.1418904 C158.381,69.3528904 156.901,71.5628904 155.451,73.8018904 C157.85,72.4518904 160.241,71.0928904 162.641,69.7628904 C162.74,69.1128904 162.93,67.8228904 163.031,67.1818904 C162.241,67.1728904 160.661,67.1528904 159.87,67.1418904 L159.87,67.1418904 Z" id="Fill-1492" fill="#1A1918" sketch:type="MSShapeGroup"></path>
            <path d="M65,4 C68.56,4.219 72.02,5.19 75.069,7.08 C72.29,8.97 69.3,10.53 66.23,11.889 C65.919,9.92 65.309,5.97 65,4" id="Fill-1493" fill="#1A1918" sketch:type="MSShapeGroup"></path>
            <path d="M522.681693,23.9192373 C531.081693,16.1902373 542.221693,13.0602373 552.310693,8.27023733 C564.351693,6.27923733 574.340693,15.6602373 581.291693,24.2402373 C572.851693,25.3192373 564.341693,21.8202373 556.060693,24.9502373 C552.711693,25.6602373 551.761693,29.6202373 550.101693,32.0992373 C545.391693,40.3402373 544.180693,49.9202373 542.900693,59.1502373 C543.081693,70.7592373 548.830693,81.4902373 548.191693,93.1802373 C549.360693,101.960237 542.701693,108.359237 537.811693,114.710237 C541.991693,118.529237 546.860693,121.769237 550.081693,126.530237 C544.730693,125.680237 540.580693,122.070237 536.151693,119.290237 C531.551693,116.249237 526.791693,113.500237 522.211693,110.430237 C525.310693,105.110237 531.820693,105.800237 537.020693,104.690237 C543.301693,101.249237 542.321693,93.2202373 541.810693,87.2792373 C540.430693,79.5802373 538.371693,72.0102373 537.181693,64.2802373 C535.641693,52.8802373 538.930693,41.5402373 543.171693,31.0902373 C546.400693,22.9902373 555.051693,20.1102373 561.670693,15.4592373 C557.841693,14.5002373 553.681693,12.7802373 549.841693,14.6492373 C543.111693,17.6902373 535.921693,20.3402373 530.380693,25.3402373 C525.541693,29.4002373 528.770693,36.5402373 525.281693,41.2392373 C523.921693,42.5202373 522.151693,43.2402373 520.550693,44.1302373 C517.711693,37.4002373 515.701693,30.3802373 513.841693,23.3302373 C509.341693,25.3902373 503.601693,27.8502373 503.471693,33.6892373 C501.741693,38.0202373 504.331693,42.2902373 506.471693,45.9392373 C508.971693,49.3702373 514.320693,48.9902373 516.721693,52.5692373 C518.191693,60.3392373 517.291693,68.2702373 517.721693,76.1302373 C518.631693,80.4102373 522.111693,83.7602373 522.901693,88.0902373 C521.901693,91.8502373 519.151693,94.8292373 517.261693,98.1502373 C512.031693,96.7902373 504.460693,95.2392373 503.811693,88.5802373 C504.261693,78.8692373 514.390693,71.7902373 512.211693,61.5502373 C509.691693,62.8592373 507.151693,64.1102373 504.500693,65.0902373 C501.991693,56.7602373 500.671693,47.5002373 494.361693,41.0202373 C491.701693,37.6802373 487.081693,37.2292373 483.271693,36.1892373 C479.721693,37.5502373 475.930693,39.7402373 474.850693,43.6492373 C473.311693,51.1702373 470.471693,60.0802373 475.470693,67.0092373 C478.180693,71.8102373 484.491693,75.8902373 481.971693,82.1392373 C476.890693,80.7402373 470.750693,79.6102373 467.661693,74.8192373 C462.520693,67.0902373 456.190693,60.2792373 449.941693,53.4592373 C447.300693,55.3602373 444.811693,57.4702373 442.210693,59.4392373 C438.020693,56.7902373 433.870693,53.8592373 429.131693,52.3102373 C423.610693,50.8602373 417.861693,50.6392373 412.201693,50.3692373 C414.070693,55.0702373 416.451693,59.5602373 418.341693,64.2602373 C417.061693,64.6192373 415.791693,64.9702373 414.520693,65.3092373 C412.090693,62.3092373 410.210693,58.7902373 407.241693,56.2602373 C387.331693,50.2002373 365.170693,50.8302373 346.130693,59.7702373 C354.780693,65.5102373 365.770693,66.7492373 373.750693,73.7002373 C379.621693,79.0002373 386.361693,83.8492373 390.561693,90.6802373 C394.730693,99.4592373 397.241693,108.920237 400.581693,118.030237 C402.881693,123.450237 399.211693,129.020237 398.241693,134.259237 C394.431693,146.879237 387.401693,158.630237 376.840693,166.740237 C367.940693,173.020237 358.281693,178.629237 347.410693,180.549237 C339.331693,182.029237 331.060693,184.540237 322.801693,182.859237 C307.711693,181.310237 292.771693,175.390237 282.321693,164.080237 C274.090693,156.820237 271.441693,145.779237 267.400693,136.010237 C249.031693,149.040237 225.370693,152.910237 203.361693,149.910237 C188.661693,147.290237 174.980693,140.760237 162.051693,133.530237 C157.541693,132.110237 152.641693,133.530237 148.011693,132.760237 C150.760693,134.609237 153.571693,136.370237 156.321693,138.230237 C156.160693,140.860237 155.991693,143.490237 155.800693,146.120237 C150.631693,144.620237 145.510693,142.810237 140.121693,142.260237 C140.590693,138.920237 141.220693,135.599237 142.351693,132.430237 C126.601693,131.540237 111.111693,127.490237 96.3516934,122.030237 C89.4616934,119.639237 83.7916934,114.910237 77.8016934,110.910237 C73.5216934,116.169237 69.5116934,122.690237 62.6616934,124.740237 C53.4016934,127.660237 43.6606934,128.620237 34.0706934,129.860237 C30.6816934,126.100237 26.6016934,122.830237 23.9216934,118.499237 C21.8516934,113.170237 21.5116934,107.390237 20.6906934,101.780237 C14.3316934,103.320237 7.53169338,106.170237 1.28169338,102.530237 C2.26069338,97.0502373 3.30169338,91.1902373 6.62169338,86.5702373 C12.6016934,80.2492373 20.3616934,76.2002373 27.6716934,71.6702373 C23.3916934,69.1892373 18.7416934,67.3702373 14.6016934,64.6502373 C9.90169338,58.8702373 5.50069338,51.9592373 4.82069338,44.4102373 C6.60169338,39.6692373 8.74069338,35.0692373 10.5316934,30.3192373 C11.7816934,30.2592373 13.0416934,30.1902373 14.2906934,30.1292373 C17.2606934,36.7292373 21.3516934,43.1302373 22.1116934,50.4702373 C18.7106934,50.4302373 15.3016934,50.2992373 11.9216934,50.7702373 C15.2206934,54.6892373 17.7006934,59.4592373 21.9016934,62.5492373 C31.7216934,70.4502373 44.9416934,70.0502373 56.5316934,73.6102373 C55.8416934,75.7902373 55.2016934,78.0502373 54.5206934,80.2492373 C45.2916934,79.1702373 35.8906934,76.3592373 26.6016934,78.6602373 C19.7806934,81.3392373 14.2816934,86.7802373 11.6216934,93.6092373 C21.6216934,93.8802373 31.6316934,95.2002373 41.2816934,97.8192373 C41.6716934,99.0592373 42.4616934,101.540237 42.8516934,102.780237 C39.4816934,103.470237 35.9816934,103.709237 32.7316934,104.860237 C30.8006934,106.440237 29.4616934,108.610237 27.8216934,110.480237 C29.9806934,113.500237 32.1416934,116.519237 34.3216934,119.540237 C43.6606934,118.889237 53.6706934,119.590237 62.3116934,115.310237 C66.5416934,113.710237 69.4116934,109.490237 70.1506934,105.160237 C69.7306934,99.8902373 66.4416934,95.4102373 64.6616934,90.5302373 C66.3806934,90.2002373 68.1016934,89.7292373 69.8616934,89.7802373 C75.4616934,93.0692373 77.8116934,99.6802373 82.2016934,104.189237 C89.8906934,112.109237 100.821693,115.550237 111.471693,117.189237 C99.1916934,111.149237 84.9716934,106.270237 77.6506934,93.7492373 C75.6616934,90.2002373 73.0416934,83.9792373 77.5416934,81.5702373 C83.5516934,79.5502373 90.6016934,81.7992373 96.1416934,78.1002373 C103.681693,74.2702373 106.351693,65.2602373 107.611693,57.5002373 C106.801693,56.9192373 106.001693,56.3502373 105.201693,55.7692373 C101.720693,57.5692373 97.9906934,58.7992373 94.2216934,59.8102373 C94.9006934,50.7902373 100.131693,40.2802373 94.4416934,32.0102373 C91.7016934,26.6002373 85.4016934,25.1302373 80.2406934,22.9302373 C76.5706934,26.6902373 72.5816934,30.5502373 71.0206934,35.7292373 C68.6506934,42.2692373 70.4016934,49.2092373 69.8116934,55.9192373 C68.0816934,57.9102373 64.8816934,57.8692373 62.9206934,59.3302373 C61.7116934,52.3302373 61.1316934,45.2402373 59.9006934,38.2492373 C58.1316934,32.5302373 52.5016934,29.4802373 47.5706934,26.8102373 C47.2116934,31.0402373 47.5616934,35.2702373 47.6116934,39.5002373 C41.2316934,38.5192373 37.7716934,33.0402373 33.1316934,29.3502373 C26.5716934,25.5692373 19.3816934,22.9502373 12.1606934,20.7402373 C11.7916934,23.0492373 11.4816934,25.3702373 11.1416934,27.6802373 C4.75069338,24.4902373 -0.579306616,18.9502373 0.0506933844,11.2102373 C13.3406934,9.83023733 24.0716934,18.6292373 35.8106934,22.9702373 C40.3006934,22.3102373 44.3916934,18.7202373 49.0616934,19.3492373 C55.1916934,21.9392373 58.9306934,27.8502373 63.6106934,32.2992373 C69.7416934,27.9502373 72.5616934,19.7202373 79.6016934,16.5592373 C87.0706934,15.7792373 93.4216934,21.3002373 97.3516934,27.0802373 C102.751693,33.7202373 103.651693,42.7102373 108.670693,49.5592373 C113.571693,56.0992373 114.291693,65.4202373 110.701693,72.7292373 C107.740693,77.1892373 104.691693,81.9892373 99.9516934,84.7802373 C95.2616934,87.3702373 90.2416934,89.2492373 85.3716934,91.4702373 C91.2816934,102.440237 102.461693,110.189237 114.511693,112.970237 C122.350693,115.100237 130.321693,116.690237 138.271693,118.370237 C138.101693,119.600237 137.941693,120.820237 137.770693,122.049237 C131.061693,122.030237 124.450693,120.820237 117.771693,120.500237 C128.181693,123.599237 139.231693,124.019237 149.691693,127.079237 C142.751693,115.859237 137.620693,101.930237 124.931693,95.9502373 C122.521693,100.000237 120.151693,104.090237 117.621693,108.070237 C104.981693,101.579237 111.391693,79.6902373 124.621693,78.1402373 C130.670693,77.6002373 134.560693,72.6602373 140.091693,70.8892373 C139.921693,76.8292373 142.711693,82.4002373 142.461693,88.3102373 C136.591693,87.1192373 131.361693,83.7902373 125.350693,83.1502373 C121.210693,84.3802373 118.371693,87.7402373 116.341693,91.3602373 C121.251693,91.4192373 126.151693,90.6502373 131.041693,91.4602373 C137.341693,95.1292373 140.560693,101.960237 144.991693,107.420237 C153.321693,119.010237 164.151693,128.750237 176.671693,135.610237 C184.971693,139.580237 194.221693,140.360237 203.081693,142.370237 C214.540693,144.549237 226.400693,146.260237 237.971693,143.649237 C245.781693,141.490237 253.210693,138.129237 260.340693,134.299237 C264.961693,131.970237 266.671693,126.670237 269.290693,122.530237 C268.501693,121.769237 267.721693,121.009237 266.951693,120.260237 C260.311693,125.299237 254.451693,131.810237 246.230693,134.249237 C234.151693,139.889237 220.551693,141.420237 207.361693,139.899237 C195.550693,136.880237 184.941693,129.380237 178.270693,119.160237 C174.221693,111.269237 171.280693,101.120237 175.771693,92.7902373 C179.341693,85.6892373 187.131693,83.3602373 193.591693,79.7902373 C190.701693,77.5792373 187.831693,75.3802373 184.930693,73.1902373 C185.441693,71.9992373 185.951693,70.8102373 186.461693,69.6292373 C195.721693,72.3892373 203.000693,79.1802373 208.821693,86.6702373 C203.401693,87.5102373 197.931693,87.3192373 192.481693,87.2902373 C188.731693,88.7692373 184.401693,90.5492373 182.230693,94.1602373 C179.710693,101.069237 181.241693,108.520237 181.831693,115.619237 C193.081693,109.640237 204.931693,104.919237 216.430693,99.4702373 C224.951693,95.3902373 232.071693,89.0802373 239.680693,83.6202373 C231.190693,78.4702373 221.611693,74.0002373 215.830693,65.5302373 C212.641693,60.8402373 217.491693,55.7402373 219.351693,51.4502373 C212.890693,47.0292373 205.281693,43.1902373 201.291693,36.1192373 C197.530693,30.2302373 195.681693,22.0192373 199.821693,15.8792373 C217.101693,19.0102373 234.481693,23.0002373 252.181693,21.8002373 C263.201693,21.0302373 274.180693,19.6892373 285.221693,19.2202373 C299.210693,18.5992373 313.031693,15.4002373 327.081693,15.9302373 C332.080693,16.1502373 337.101693,16.4402373 342.111693,15.9202373 C361.110693,14.9902373 379.881693,18.7602373 398.331693,22.7602373 C416.050693,26.2102373 430.690693,37.6702373 447.761693,42.9592373 C455.881693,47.4102373 461.401693,55.2102373 467.071693,62.3302373 C465.980693,51.3892373 466.611693,38.4392373 476.231693,31.2202373 C482.151693,29.3192373 488.800693,31.2092373 494.911693,31.7202373 C500.971693,24.8502373 507.601693,17.6002373 516.781693,15.1602373 C518.741693,18.0702373 520.750693,20.9692373 522.681693,23.9192373 L522.681693,23.9192373 Z M289.180693,24.8902373 L289.180693,24.8902373 C274.711693,25.0102373 260.701693,29.3192373 246.230693,29.1802373 C231.770693,29.9792373 217.981693,24.2602373 203.560693,24.6102373 C206.050693,33.2302373 211.311693,41.8702373 219.901693,45.3892373 C228.001693,46.2602373 236.201693,45.3592373 244.330693,46.1202373 C243.201693,48.2502373 242.140693,50.9702373 239.301693,51.0292373 C232.171693,51.5902373 226.900693,56.4802373 221.410693,60.4502373 C224.221693,67.1002373 228.931693,72.5602373 234.980693,76.4392373 C233.960693,72.1192373 230.620693,66.3802373 234.841693,62.8702373 C245.150693,55.9002373 255.811693,48.6402373 268.381693,46.6102373 C269.150693,43.9102373 269.471693,41.0492373 270.670693,38.5002373 C272.421693,37.0002373 274.681693,36.3102373 276.761693,35.3992373 C278.770693,42.4102373 282.001693,48.9392373 284.841693,55.6292373 C274.981693,55.8292373 264.481693,52.5802373 255.250693,57.2502373 C250.311693,59.6602373 244.721693,61.7692373 241.210693,66.2002373 C238.111693,70.2702373 244.000693,73.7792373 247.111693,75.2802373 C253.741693,77.2702373 260.911693,76.0702373 267.730693,76.9592373 C266.350693,80.4392373 264.171693,83.4902373 262.031693,86.5302373 C270.500693,93.2092373 281.861693,88.1702373 289.210693,82.1902373 C292.030693,79.0502373 296.391693,82.3202373 295.711693,85.9702373 C293.491693,93.4502373 287.161693,98.6002373 283.480693,105.300237 C280.721693,110.459237 278.331693,115.819237 276.370693,121.330237 C274.081693,128.919237 276.291693,136.950237 278.780693,144.209237 C287.511693,142.390237 287.361693,132.479237 290.800693,126.040237 C297.831693,130.580237 293.601693,141.080237 300.090693,146.279237 C310.151693,159.860237 329.151693,160.850237 344.401693,158.420237 C352.091693,155.999237 359.401693,151.340237 363.910693,144.520237 C355.951693,151.240237 344.680693,153.049237 334.900693,149.500237 C327.541693,146.099237 320.960693,140.459237 317.261693,133.170237 C311.251693,121.430237 306.610693,107.910237 309.761693,94.6302373 C311.881693,85.7302373 315.310693,76.5892373 322.581693,70.5692373 C331.041693,63.4792373 339.591693,55.7902373 350.191693,52.1302373 C357.310693,49.1202373 365.041693,48.1402373 372.580693,46.7002373 C383.900693,44.9302373 395.761693,48.7402373 406.821693,45.2002373 C414.801693,42.4402373 423.380693,44.3002373 431.620693,43.8502373 C428.741693,41.9602373 425.800693,40.1302373 422.661693,38.7002373 C402.020693,29.9402373 380.401693,23.1802373 358.081693,20.4592373 C350.571693,20.0292373 343.110693,21.5302373 335.611693,21.3002373 C320.051693,19.4902373 304.671693,24.2302373 289.180693,24.8902373 L289.180693,24.8902373 Z M340.750693,65.3002373 L340.750693,65.3002373 C340.891693,65.6202373 341.181693,66.2592373 341.321693,66.5902373 C343.921693,67.2002373 342.170693,63.1192373 340.750693,65.3002373 L340.750693,65.3002373 Z M344.080693,66.7102373 L344.080693,66.7102373 C347.480693,68.2392373 350.901693,69.7702373 354.321693,71.2902373 C354.111693,72.4902373 353.900693,73.6892373 353.701693,74.9002373 C345.951693,73.5892373 338.371693,71.2902373 330.491693,70.8102373 C324.181693,78.7602373 316.900693,86.8202373 315.380693,97.2902373 C313.131693,105.339237 316.330693,113.439237 318.351693,121.139237 C321.681693,132.760237 331.221693,142.569237 343.070693,145.430237 C351.001693,147.459237 359.890693,141.209237 360.961693,133.180237 C360.831693,127.650237 359.791693,122.180237 359.721693,116.649237 C371.161693,120.389237 374.391693,135.820237 369.920693,145.880237 C366.681693,154.650237 357.500693,158.540237 350.020693,162.959237 C337.930693,167.439237 324.281693,167.110237 312.091693,163.120237 C305.221693,160.810237 299.671693,155.969237 293.480693,152.360237 C297.411693,158.530237 303.811693,162.729237 310.051693,166.229237 C321.451693,168.070237 333.230693,167.680237 344.690693,166.339237 C360.831693,163.089237 377.011693,152.210237 381.471693,135.660237 C382.901693,128.390237 385.930693,120.590237 383.221693,113.260237 C381.310693,107.549237 379.171693,101.910237 376.791693,96.3892373 C372.380693,87.6202373 364.630693,81.2802373 356.941693,75.5092373 C359.041693,74.9302373 361.150693,74.3792373 363.281693,73.8392373 C357.141693,70.8192373 351.100693,67.1692373 344.080693,66.7102373 L344.080693,66.7102373 Z M363.891693,74.8492373 L363.891693,74.8492373 C374.251693,83.7402373 383.641693,94.7802373 386.960693,108.320237 C389.531693,122.350237 389.381693,138.359237 379.881693,149.879237 C369.790693,160.979237 356.570693,169.359237 341.931693,172.910237 C353.421693,170.890237 365.860693,169.040237 374.750693,160.740237 C378.271693,156.620237 382.151693,152.799237 385.651693,148.660237 C395.191693,133.040237 395.121693,112.549237 387.020693,96.3392373 C381.751693,87.0892373 374.521693,78.0292373 363.891693,74.8492373 L363.891693,74.8492373 Z M254.101693,81.1892373 L254.101693,81.1892373 C236.031693,88.5502373 221.871693,102.910237 204.211693,111.059237 C198.051693,114.430237 189.490693,114.620237 185.191693,120.799237 C202.711693,116.350237 220.041693,109.680237 234.430693,98.5092373 C241.041693,92.9302373 251.131693,90.1402373 254.101693,81.1892373 L254.101693,81.1892373 Z M242.960693,100.050237 L242.960693,100.050237 C227.371693,111.580237 209.361693,119.029237 191.681693,126.689237 C200.631693,131.849237 210.591693,136.310237 221.231693,135.230237 C231.211693,135.640237 240.971693,132.540237 249.541693,127.610237 C253.520693,125.350237 258.020693,123.650237 261.100693,120.110237 C267.761693,112.390237 275.051693,104.990237 279.610693,95.7502373 C272.031693,95.2992373 264.511693,94.2992373 257.270693,92.0602373 C252.081693,93.7592373 247.611693,97.2292373 242.960693,100.050237 L242.960693,100.050237 Z M282.141693,150.700237 L282.141693,150.700237 C281.321693,153.610237 283.690693,155.930237 285.040693,158.229237 C291.331693,168.459237 304.071693,172.139237 315.380693,173.410237 C310.730693,171.570237 305.821693,170.299237 301.390693,167.939237 C293.900693,163.479237 288.841693,156.090237 282.141693,150.700237 L282.141693,150.700237 Z" id="Fill-1494" fill="#1A1918" sketch:type="MSShapeGroup"></path>
            <path d="M621.32473,12.109 C625.27473,9.979 629.63473,8.67 633.81373,7 C641.95473,14.11 648.84373,22.489 653.89373,32.07 C660.62473,28.999 668.26473,27.65 675.23473,30.87 C678.01373,25.31 680.19473,18.97 685.31473,15.06 C689.65373,12.33 694.93373,12.08 699.85473,11.17 C699.78373,12.49 699.72373,13.799 699.67473,15.12 C695.57373,16.86 691.50373,18.57 687.59473,20.7 C693.54373,21.18 699.83473,20.489 705.45473,22.97 C714.39473,28.589 721.86473,38.11 721.24373,49.159 C718.64473,62.43 715.95373,76.06 717.72373,89.6 C718.57373,94.999 725.05373,95.959 728.67473,98.95 C734.10473,102.34 733.77373,109.929 738.09373,114.29 C742.49373,118.62 748.14373,121.39 753.93373,123.36 C766.80473,127.31 779.20373,132.81 790.82373,139.609 C809.62473,152.759 818.96473,177.76 815.19473,200.12 C811.79473,212.569 801.32473,221.12 791.81473,229.08 C798.56473,228.52 805.95373,227.59 811.28473,222.96 C814.40473,220.09 815.27473,215.089 819.12473,213.02 C821.86373,213 824.49373,213.929 827.16373,214.5 C832.01373,204.779 834.86473,193.409 831.56473,182.73 C828.88373,173.83 819.34373,169.09 817.01373,159.989 C828.06373,158.73 838.60473,166.48 849.45473,162.699 C846.74373,155.92 843.88373,149.009 838.57373,143.79 C834.39473,139.03 828.16473,137.239 822.69473,134.479 C824.58373,130.86 826.62473,127.319 828.64473,123.77 C827.61473,122.71 826.59473,121.65 825.58473,120.58 C811.88473,119.719 797.20373,124.549 784.30373,118.24 C780.61373,116.85 778.76373,113.04 777.84373,109.45 C784.50373,108.859 791.22373,109.09 797.70473,110.94 C803.32373,112.57 809.13473,110.959 814.53473,109.249 C820.15373,102.439 827.87473,97.93 833.99373,91.71 C836.88473,88.549 832.33473,85.92 829.57373,85.08 C818.58373,82.679 807.41473,83.44 796.30373,83.83 C797.96473,81.08 799.19473,77.629 802.38473,76.31 C813.82373,72.33 825.80473,69.95 837.03473,65.339 C834.08473,63.93 831.14473,62.49 828.20373,61.069 C833.36473,52.259 840.87473,45.03 845.45373,35.839 C842.19473,35.77 838.59373,34.52 835.64473,36.31 C830.27473,39.58 825.23473,43.52 819.14473,45.42 C818.37473,42.4 817.65473,39.379 816.91473,36.36 C812.33473,39.83 808.35473,43.99 804.00373,47.719 C796.28473,53.88 792.46473,63.31 786.44473,70.879 C785.21473,71.62 782.75473,73.09 781.52473,73.83 C780.18373,63.63 786.63473,54.77 787.33473,44.85 C786.48373,40.12 783.96373,35.89 781.99473,31.549 C780.50473,31.489 779.01373,31.43 777.54373,31.38 C772.28473,38.029 769.84373,46.249 765.74373,53.56 C764.63473,55.72 762.02473,56.14 759.99473,56.99 C759.11473,51.97 759.05473,46.02 754.66473,42.529 C749.39473,40.5 747.82473,46.189 745.38473,49.14 C741.78473,54.54 741.97473,61.35 741.38473,67.54 C741.25473,69.779 741.11473,72.62 743.24373,74.03 C747.66473,77.18 752.38373,79.89 756.94473,82.85 C755.80373,86.31 755.60473,91.609 751.55373,93.24 C748.26473,94.43 744.19473,95.31 741.08473,93.33 C737.16373,87.94 736.84473,81.15 735.76473,74.819 C735.25473,68.12 733.58473,60.81 736.82373,54.52 C740.44473,44.8 746.17373,35.29 756.00373,30.83 C752.16473,25.89 749.25373,18.04 742.10473,17.79 C736.68473,21.719 737.31373,30.04 734.12473,35.699 C733.41473,35.6 732.00373,35.39 731.29473,35.29 C728.18473,25.999 719.42473,21.299 712.94473,14.73 C719.29473,13.68 724.85473,16.999 730.36473,19.669 C733.94473,15.41 736.45473,7.589 743.69473,9.58 C750.44473,14.33 756.09373,20.52 761.20373,26.98 C763.13473,31.609 763.28473,36.739 764.03473,41.66 C767.47373,36.49 769.72473,30.31 774.34373,26.029 C781.28473,22.03 786.45473,30.719 791.96473,33.56 C800.71473,30.979 807.78373,24.65 815.96473,20.74 C827.37473,15.25 839.77473,12.049 852.27373,10.249 C876.42473,8.62 900.67373,7.63 924.87473,8.52 C937.29373,8.58 949.10473,12.979 961.38473,14.22 C982.80473,17.89 1004.43473,21.22 1026.22473,21.08 C1029.02473,21.499 1029.84373,18.239 1031.45373,16.669 C1040.47473,19.929 1048.24473,13.24 1055.84373,9.64 C1060.91373,10.31 1059.87473,16.909 1058.66473,20.209 C1057.05373,30.469 1046.45473,34.64 1038.33373,38.779 C1041.22473,42.379 1045.88473,47.32 1042.59473,52.219 C1024.01473,63.75 999.95373,60.109 981.57473,50.029 C979.11473,48.049 976.21473,49.39 973.64473,50.16 C983.79373,56.39 992.16473,65.37 1003.19473,70.179 C1019.41473,76.86 1033.95473,87.15 1050.81373,92.39 C1062.07473,95.27 1071.98473,101.629 1083.07373,105.049 C1083.98473,100.429 1084.74373,95.73 1084.43473,91 C1079.91473,80.73 1068.28373,75.89 1057.66473,76.47 C1052.42473,77.929 1047.12373,79.29 1041.68373,79.669 C1041.10473,69.46 1051.52473,64.21 1059.74473,61.41 C1068.68373,57.65 1078.61473,60.36 1087.53373,56.67 C1087.78373,58.599 1088.28473,62.449 1088.53473,64.38 C1092.10473,60.31 1096.37373,56.29 1096.94473,50.56 C1100.43373,38.35 1108.95473,28.249 1117.98473,19.65 C1125.54373,10.57 1138.89473,12.65 1149.27373,11.95 C1153.43373,11.079 1160.38373,13.75 1157.84373,19.489 C1157.68473,21.77 1154.34373,22.3 1152.84373,23.53 C1148.20373,26.49 1141.99473,24.81 1137.66373,28.29 C1130.89373,33.31 1123.15373,38.25 1119.70473,46.29 C1118.44473,51.08 1119.88373,56.14 1119.80373,61.03 C1129.93473,61.83 1143.25473,62.73 1148.57473,72.989 C1151.21473,76.37 1152.69473,80.959 1151.49473,85.199 C1150.23473,88.38 1147.86473,90.979 1146.07373,93.839 C1143.86473,90.33 1143.21473,85.97 1140.48473,82.799 C1134.39473,80.38 1127.48473,82.22 1122.59373,86.27 C1117.11473,92.06 1113.62473,99.28 1109.59373,106.06 C1110.44473,106.89 1111.30373,107.719 1112.17373,108.55 C1119.44473,108.53 1126.72473,108.06 1133.98473,107.509 C1133.77473,108.73 1133.58373,109.95 1133.40473,111.169 C1124.00473,112.08 1114.54473,112.06 1105.12473,112.199 C1108.13473,114.46 1111.39473,116.38 1114.42373,118.639 C1109.51473,119.74 1104.33373,119.83 1099.60473,121.48 C1091.83473,126.49 1086.74473,134.78 1078.66473,139.39 C1063.67473,149.67 1044.48473,150.42 1027.01473,149.18 C1009.96473,146.95 994.90373,138.049 980.55373,129.169 C976.97473,141.33 969.71473,151.89 962.21473,161.92 C954.13373,171.989 941.33473,175.17 929.40473,178.009 C914.99373,181.16 899.32373,181.08 885.81373,174.58 C861.79473,164.02 844.79473,137.45 848.30473,110.94 C850.16373,98.04 857.62473,86.51 867.28373,77.97 C877.71373,67.64 892.59373,64.71 905.58373,58.93 C890.92373,47.11 872.07373,42.929 853.85473,40.57 C850.98373,40.58 849.09473,43.14 847.47473,45.18 C844.41473,49.47 841.73473,54.04 839.43373,58.79 C842.27473,59.9 845.10473,61.06 847.89473,62.32 C847.88473,63.79 847.89473,65.26 847.90373,66.73 C839.45473,72.25 829.47473,74.23 819.87473,76.77 C827.46373,79.459 834.62473,83.19 841.84373,86.749 C837.92473,98.37 828.79473,107.08 821.19473,116.359 C826.84473,119.05 832.81473,121 838.39373,123.859 C836.63473,126.159 834.41473,128.15 833.09373,130.77 C832.83373,133.069 835.31473,134.29 836.74473,135.66 C848.08473,142.86 853.81473,156.01 857.06473,168.54 C847.82373,168.54 838.55473,168.709 829.33473,168.01 C833.85473,175.659 840.37473,183.089 839.79373,192.569 C840.75373,201.859 836.76373,211 832.07373,218.749 C822.87473,224.089 813.80473,230.199 803.39473,232.999 C794.79373,234.72 786.39473,230.87 778.54473,227.85 C772.93473,225.47 766.26473,222.15 765.56473,215.37 C773.09473,218.479 780.07373,224.12 788.83473,222.569 C798.06373,220.35 802.89473,211.35 806.60473,203.419 C809.49473,194.58 811.44473,184.79 808.96473,175.589 C806.06473,159.829 793.97373,147.259 779.88473,140.5 C766.42373,133.14 751.34373,129.58 737.79373,122.449 C734.40473,121.06 730.87473,117.65 727.03373,119.64 C707.53373,126.989 691.06473,140.94 677.87473,156.83 C682.74473,154.37 687.39473,151.469 692.34373,149.16 C704.15473,144.25 716.92473,142.6 729.54373,141.25 C746.53473,139.75 764.70373,143.159 778.29373,154 C788.54473,160.39 798.49373,168.39 803.57373,179.659 C804.37473,182.38 803.58373,185.31 803.49473,188.1 C794.09373,181.57 784.65473,174.569 773.10473,172.51 C771.76473,176.15 770.45373,179.8 768.92473,183.369 C753.49373,183.049 745.08373,168.299 731.17473,164.01 C726.03373,161.479 720.23473,163.54 715.28473,165.6 C727.64473,169.02 740.92473,172.6 749.69473,182.67 C754.20473,190.3 757.42373,199.9 754.01373,208.589 C750.64473,218.959 740.62473,228.61 729.01373,227.13 C723.05473,226.37 717.43373,224.009 711.84373,221.959 C710.15473,225.319 708.46473,228.69 706.75473,232.04 C691.01473,232.27 675.83473,220.71 671.98473,205.49 C670.86473,200.16 670.93473,194.66 670.50373,189.25 C654.00373,202.47 642.78473,221.9 640.47473,243 C658.80473,245.959 677.73373,241.189 695.98473,245.419 C704.60473,248.22 707.63473,259.319 703.08473,266.8 C699.12473,270.889 693.74373,273.93 687.85473,273.39 C672.92473,273.81 657.98473,273.18 643.09373,272.1 C643.30373,273.43 643.53473,274.759 643.79473,276.089 C654.44473,276.77 668.22373,276.239 674.93473,286.369 C678.80373,294.53 679.47473,303.77 680.35473,312.63 C673.54473,315.299 666.17473,316.27 658.97373,314.85 C656.25373,321.95 652.92473,328.81 648.16473,334.79 C645.03373,338.699 642.07373,344.91 635.83473,343.57 C628.79473,343.62 624.30373,338.08 619.77373,333.62 C615.11473,329.11 611.63473,323.569 608.82373,317.77 C604.10473,318 598.29373,320.72 594.06373,317.329 C591.61373,314.62 589.73473,311.31 588.62473,307.84 C585.46473,297.229 592.05473,286.28 600.63473,280.389 C607.31473,276.97 615.47373,277.77 621.87473,273.659 C602.86373,267.429 583.08473,273.67 563.80373,270.66 C553.78473,269.6 548.76373,254.71 556.14473,247.819 C558.64473,244.79 562.52473,243.57 566.28473,243.13 C580.54473,241.759 594.87473,243.08 609.17473,242.819 C606.82373,232.1 602.02473,222.13 596.78473,212.56 C594.84373,208.85 592.17473,205.589 589.10473,202.759 C587.87473,212.26 585.24373,222.76 576.84373,228.509 C571.28473,233.88 563.42473,235.92 555.86473,235.56 C552.02473,235.02 550.38373,230.98 548.49473,228.109 C536.39473,233.12 520.17373,232.969 511.34473,222.12 C505.50373,211.17 507.07373,197.089 514.70473,187.42 C518.78473,180.41 526.41473,177.1 533.15473,173.25 C517.49373,172.069 506.19373,186.299 491.40373,189.159 C490.53473,188.14 489.66373,187.129 488.79373,186.109 C489.04473,181.51 490.47473,176.94 490.01473,172.3 C476.40373,174.6 467.54473,186.239 455.64373,192.02 C454.31473,186.709 457.27473,181.62 459.39473,176.98 C471.61373,158.16 493.87473,146.509 516.41473,148.199 C500.53373,153.949 481.88473,158.06 471.03373,172.109 C480.31473,168.229 490.14473,165.799 500.29473,166.949 C499.08473,171.099 497.62473,175.159 496.23373,179.25 C509.08473,175.879 520.12473,166.849 533.87473,166.64 C541.38373,165.07 548.22373,168.859 554.30473,172.69 C552.29473,174.169 552.53473,179.449 549.19473,179.629 C544.36373,180.199 539.48473,179.52 534.70473,180.4 C525.72373,182.37 518.02473,189.65 515.72373,198.58 C513.87473,204.67 512.92473,211.91 517.27473,217.199 C520.80373,223.319 528.39473,224.59 534.87473,225.109 C543.87473,225.18 549.30373,217.249 556.03373,212.569 C557.13473,218.05 557.54473,223.64 558.01373,229.21 C570.71473,228.839 583.35473,217.84 582.61373,204.679 C582.08473,196.999 572.89373,191.94 575.10473,183.949 C579.37473,185.87 583.53373,188.03 587.68373,190.199 C586.05373,183.58 581.40473,178.429 576.51373,173.959 C568.64473,167.689 561.21373,160.63 551.82373,156.62 C540.90373,151.12 528.46473,151.04 516.72373,148.63 C517.49373,147.55 518.26473,146.479 519.05473,145.41 C527.60473,145.92 536.60473,144.64 544.84373,147.56 C548.26373,148.729 551.68373,149.78 555.22473,150.56 C544.32373,140.78 531.43473,133.75 519.03373,126.12 C515.34373,129.97 512.33473,134.98 507.08473,136.85 C493.86473,142.03 479.13373,142.999 466.66473,150.13 C459.37473,153.41 452.81473,158.27 447.65473,164.4 C442.74373,170.719 441.09373,178.869 440.23473,186.64 C440.77473,195.779 444.48373,204.34 445.63373,213.39 C443.11373,211.4 440.31373,209.65 438.27373,207.159 C432.94473,195.41 432.72473,181.679 436.91473,169.56 C441.03473,160.109 448.80373,152.659 457.22373,146.94 C472.16373,137.55 491.17473,139 506.26473,129.88 C509.80373,126.299 511.38373,121.129 515.23473,117.779 C521.51473,117.9 526.05373,123.12 531.18473,126.049 C556.33473,141.469 578.90473,161.93 594.05373,187.44 C598.13473,194.14 597.47373,202.63 602.13473,209.069 C607.07373,217.06 609.85473,226.06 613.02373,234.83 C612.96373,222.62 608.09373,211.249 604.69473,199.729 C601.25473,188.31 593.51473,178.96 587.51473,168.85 C582.11473,159.499 573.35473,152.98 566.69473,144.66 C562.16373,139.06 556.42473,134.719 550.77373,130.35 C551.06473,129 551.36473,127.65 551.68373,126.31 C560.13473,131.81 567.75373,138.469 575.39473,145.02 C586.46473,154.81 593.80373,167.87 600.67473,180.739 C608.63473,195.19 613.04473,211.21 618.28373,226.76 C617.40473,200.06 618.97373,173.16 614.68373,146.67 C613.15373,138.01 613.50373,128.419 607.39473,121.37 C598.46473,125.989 588.88373,131.929 578.30473,128.92 C570.04473,126.01 561.42473,120.45 558.48373,111.88 C555.48373,106.5 563.07473,102.67 560.60473,97.7 C557.49473,90.9 555.29473,83.41 556.23373,75.88 C557.19373,69.929 558.32473,64 559.15373,58.03 C571.72473,57.979 582.75373,65.089 593.15473,71.37 C589.71373,64.819 585.20373,58.52 584.51473,50.92 C583.35473,42.9 585.89473,35.1 588.76373,27.739 C595.82373,27.48 601.63373,31.459 606.58473,35.989 C611.21473,27.859 615.08473,19.179 621.32473,12.109 L621.32473,12.109 Z M814.38473,29.11 L814.38473,29.11 C807.68373,32.489 800.41373,35.17 794.89473,40.42 C793.87473,43.41 794.21473,46.679 793.92473,49.799 C804.83473,43 811.38473,29.92 824.63473,26.67 C825.02473,28.42 825.81373,31.92 826.20473,33.67 C831.77473,32.13 837.17473,29.619 842.94473,28.78 C848.96473,28.179 853.74473,32.47 859.23373,33.989 C867.39473,36.349 875.89473,37.529 883.96473,40.28 C896.77473,43.369 907.04473,52.189 916.44473,60.94 C926.35473,70.74 934.72373,84.409 932.33473,98.89 C931.62473,107.629 926.29473,115.04 920.89473,121.58 C914.63473,129.049 903.97473,132.089 894.60473,129.69 C890.17373,127.739 886.20373,124.969 881.79373,123.01 C883.90373,129.62 887.07473,136.319 892.91473,140.419 C900.67373,144.73 909.94473,147.87 918.87473,145.62 C928.58473,142.89 932.16473,132.029 940.96473,127.729 C939.58473,136.75 933.63473,144.55 934.03373,153.919 C940.81473,151.189 946.42373,146.3 951.56473,141.239 C955.60473,137.26 958.99373,132.229 959.00473,126.319 C961.94473,113.959 960.78373,101.26 956.66473,89.38 C964.02373,90.93 970.54473,96.26 978.43373,94.939 C984.23473,93.94 990.78373,90.48 992.48473,84.439 C990.87473,71.989 981.49373,61.14 969.62473,57.19 C964.87473,56.92 960.20473,57.049 955.49373,56.92 C956.55473,50.889 962.66373,48.839 966.84373,45.49 C966.83473,44.749 966.81373,43.27 966.80373,42.529 C955.88473,35.86 943.59473,43.79 932.16473,44.14 C923.74373,44.29 918.64473,36.31 916.68473,29.13 C922.84373,27.089 929.69473,27.15 935.66373,29.819 C943.13473,33.42 951.78373,31.91 959.67473,33.95 C971.87473,37.29 982.80473,43.879 994.32373,48.909 C1007.59373,52.51 1023.33373,55.29 1035.74373,47.509 C1030.94473,41.52 1024.88473,36.77 1018.65473,32.389 C1019.05473,31.4 1019.46473,30.409 1019.89473,29.429 C1025.76373,30.259 1031.63473,31.759 1037.62473,31.1 C1043.19473,29.419 1049.70473,27.049 1051.94473,21.07 C1022.60473,30.909 991.65473,24.529 961.90373,20.41 C947.23473,17.83 932.61473,14.79 917.72473,13.879 C907.22373,13.759 896.75473,14.71 886.28473,15.16 C877.51373,15.52 868.77373,13.609 860.02473,14.05 C844.24473,17.02 828.70373,21.78 814.38473,29.11 L814.38473,29.11 Z M611.50473,50.569 L611.50473,50.569 C605.56473,45.509 601.54473,37.92 593.57373,35.629 C591.58473,41.87 589.74373,48.67 592.58473,55 C596.22373,64.1 601.51373,72.37 606.80373,80.58 C611.36473,86.62 609.26473,94.24 608.10473,101.089 C604.26473,99.509 599.42473,99.199 596.36473,96.109 C594.34373,92.219 594.66473,87.56 592.67473,83.66 C590.77473,80.39 588.88373,76.939 585.77473,74.65 C579.79473,69.8 573.40373,64.91 565.57373,63.67 C563.02473,72.82 563.38373,82.549 564.53473,91.89 C566.06473,98.719 572.22473,102.949 576.54373,107.97 C572.43473,108.55 568.32373,109.11 564.23473,109.75 C567.43473,117.96 575.92473,123.91 584.86373,123.41 C594.10473,124.879 598.41473,115.869 604.11473,110.58 C611.08473,111.659 614.51473,119.54 617.25373,125.159 C622.31473,141.85 622.48473,159.55 622.52473,176.86 C623.27473,190.87 623.50473,204.9 624.37473,218.9 C626.32473,201.569 627.99473,184.199 630.21373,166.9 C634.13473,148.53 636.08473,129.63 642.66373,111.93 C653.36473,114.48 662.67473,121.5 673.87473,122.17 C679.67473,122.97 685.02373,120.159 689.02473,116.23 C684.33473,113.73 679.00473,113.12 673.84473,112.319 C673.89473,111.169 673.96473,110.01 674.03473,108.859 C687.56473,100.98 698.00473,85.1 694.41473,68.94 C694.00473,65.89 691.62473,61.83 688.01473,62.79 C681.66473,64.669 673.83473,64.42 669.03373,69.709 C660.54373,77.549 657.11473,90.4 645.82373,95.12 C643.71373,92.05 640.55373,88.999 642.03373,84.76 C643.39473,80.25 645.99473,76.27 649.17473,72.85 C659.28373,62.299 665.51473,48.21 667.28473,33.77 C658.98373,33.779 657.69473,42.2 653.43473,47.14 C652.42473,48.62 650.47373,48.56 648.90473,48.74 C646.08473,42.589 646.95473,35.32 644.11373,29.17 C640.27473,23.13 634.51373,18.599 629.53473,13.57 C617.90473,22.09 612.80373,36.69 611.50473,50.569 L611.50473,50.569 Z M1128.52473,20.749 L1128.52473,20.749 C1127.34373,21.97 1129.41473,24.04 1130.64373,22.87 C1131.90473,21.6 1129.78473,19.48 1128.52473,20.749 L1128.52473,20.749 Z M690.33473,26.9 L690.33473,26.9 C686.50473,29.679 684.35473,34.1 681.49373,37.78 C679.27473,37.1 677.08473,36.37 674.89473,35.61 C672.75373,46.09 668.02473,55.69 663.47373,65.279 C674.30373,59.819 686.01473,56.29 698.32473,57.08 C701.68473,65.61 701.42473,75.119 700.18373,84.06 C698.23473,92.719 692.31373,99.439 687.79473,106.78 C690.24373,109.47 693.33473,111.499 696.11473,113.85 C694.83473,116.95 693.45373,120 692.15473,123.08 C700.58473,117.42 708.26473,110.719 716.15473,104.35 C714.38473,99.07 712.07473,93.93 711.13373,88.4 C710.15473,75.88 713.25373,63.58 714.19473,51.16 C715.23373,43.69 711.22473,36.42 706.32373,31.069 C701.67473,28.069 695.97373,25.69 690.33473,26.9 L690.33473,26.9 Z M1122.14473,26.83 L1122.14473,26.83 C1120.69473,28.06 1122.79473,30.21 1124.03473,28.72 C1125.51373,27.49 1123.36373,25.39 1122.14473,26.83 L1122.14473,26.83 Z M1114.03373,32.81 L1114.03373,32.81 C1111.32373,33.79 1112.05373,37.1 1114.67473,37.27 C1117.36473,36.29 1116.63473,32.97 1114.03373,32.81 L1114.03373,32.81 Z M1104.60473,46.03 L1104.60473,46.03 C1104.79473,46.83 1105.15373,48.43 1105.33473,49.23 C1107.08473,49.14 1110.58473,48.94 1112.33473,48.839 C1111.73473,47.489 1111.17473,46.12 1110.42473,44.86 C1108.43373,45.01 1106.52373,45.57 1104.60473,46.03 L1104.60473,46.03 Z M1104.52473,60.75 L1104.52473,60.75 C1103.34373,61.969 1105.41473,64.04 1106.64473,62.87 C1107.90473,61.6 1105.78373,59.479 1104.52473,60.75 L1104.52473,60.75 Z M908.80373,62.46 L908.80373,62.46 C906.49373,64.3 904.15373,66.08 901.77373,67.83 C905.38373,68.05 908.91473,68.17 912.56473,68.05 C911.47373,66.07 910.09373,64.279 908.80373,62.46 L908.80373,62.46 Z M1064.35473,66.24 L1064.35473,66.24 C1061.07373,67.14 1058.25373,69.16 1055.43373,70.969 C1062.35473,71.98 1069.80373,71.419 1076.40473,74.089 C1082.65373,79.11 1089.76473,85.319 1090.31473,93.909 C1091.11373,106.86 1083.41373,118.52 1074.34473,127.04 C1062.15473,137.86 1045.53373,141.719 1029.63473,142.51 C1042.52473,142.659 1055.95473,142.11 1067.92373,136.739 C1082.86373,131.489 1094.07473,119.209 1102.25473,106.069 C1107.01373,96.41 1113.65473,87.88 1120.17473,79.36 C1118.20473,75.709 1116.63473,71.819 1115.45373,67.86 C1107.92473,73.44 1106.99473,83.6 1103.74373,91.69 C1101.41373,90.18 1098.53473,88.99 1097.30373,86.32 C1094.52373,80.069 1090.77373,74.31 1088.23473,67.96 C1080.23473,67.739 1072.39373,65.04 1064.35473,66.24 L1064.35473,66.24 Z M1127.31373,66.979 L1127.31373,66.979 C1125.80373,70.51 1124.44473,74.1 1122.51473,77.419 C1130.23473,76.96 1137.99473,77.04 1145.75473,76.96 C1141.40473,71.04 1134.59373,67.42 1127.31373,66.979 L1127.31373,66.979 Z M909.32473,72.199 L909.32473,72.199 C899.80373,73.609 890.73373,77.07 881.93473,80.819 C876.04473,83.509 871.77373,88.75 868.55473,94.199 C864.87473,103.939 860.36473,114.179 862.56373,124.86 C865.08373,137.14 871.59473,149.279 882.65473,155.81 C895.45373,166.4 913.35473,165.76 928.79473,163.249 C927.71473,159.63 928.07473,155.05 925.13473,152.43 C912.40373,150.04 896.05373,151.909 886.93473,140.47 C879.55473,134.299 875.59373,125.009 875.18373,115.529 C875.64473,108.799 877.75473,101.5 883.65473,97.529 C884.41473,102.76 884.21473,108.049 884.67473,113.32 C886.93473,120.78 895.05373,127.26 903.20473,124.969 C914.13473,122.639 921.62473,112.71 924.74473,102.499 C927.39473,94.31 923.37473,86.14 920.88473,78.499 C920.51373,72.56 913.84373,71.61 909.32473,72.199 L909.32473,72.199 Z M998.38373,74.66 L998.38373,74.66 C998.52373,74.98 998.81473,75.62 998.95373,75.949 C1001.54473,76.56 999.79473,72.48 998.38373,74.66 L998.38373,74.66 Z M868.14473,82.83 L868.14473,82.83 C866.69473,84.06 868.79473,86.209 870.03373,84.719 C871.51373,83.489 869.36473,81.39 868.14473,82.83 L868.14473,82.83 Z M1000.84373,84.65 L1000.84373,84.65 C997.45473,93.43 989.94473,99.919 981.55373,103.78 C985.40473,109.489 989.73473,114.88 994.51373,119.839 C1000.99373,125.29 1009.03373,128.41 1016.67473,131.839 C1036.35473,140.43 1060.59473,134.24 1074.91373,118.57 C1074.86473,117.85 1074.77473,116.4 1074.73473,115.68 C1063.39373,110.869 1051.84473,106.6 1040.47473,101.89 C1035.44473,99.93 1032.01473,95.209 1026.70373,93.81 C1017.79473,91.609 1009.21473,88.369 1000.84373,84.65 L1000.84373,84.65 Z M745.97373,87.07 L745.97373,87.07 C743.67473,90.509 749.89473,87.85 745.97373,87.07 L745.97373,87.07 Z M864.14473,86.71 L864.14473,86.71 C861.22473,94.63 855.61373,101.39 854.03473,109.819 C852.15473,116.909 851.19473,124.659 854.73373,131.43 C859.57473,142.44 863.40473,155.679 874.56373,161.989 C880.57373,166.489 887.29473,170.31 894.78473,171.65 C909.25473,174.259 923.92373,171.31 938.17373,168.69 C944.97473,167.209 949.43473,161.44 954.21473,156.9 C959.24373,151.63 964.89473,146.839 969.04473,140.8 C971.90473,134.02 973.62473,126.75 974.35473,119.429 C974.00473,113.67 972.26373,108.049 970.54473,102.569 C965.98473,111.63 968.42473,122.4 965.17373,131.88 C963.50473,136.02 962.51373,140.72 959.42473,144.12 C956.30473,146.819 952.47373,148.5 949.30373,151.129 C945.65473,154.56 944.52373,159.89 940.45373,162.979 C933.47373,167.639 924.91473,169.89 916.53373,169.249 C906.13373,168.679 895.41473,167.839 885.72373,163.71 C876.11473,158.44 868.11473,150.41 862.20473,141.239 C859.13473,136.189 855.66473,130.81 856.68373,124.56 C855.52473,111.06 859.68473,97.77 867.31473,86.76 C866.52373,86.749 864.93473,86.72 864.14473,86.71 L864.14473,86.71 Z M705.83473,117.48 L705.83473,117.48 C693.08473,128.01 681.50473,139.849 670.16373,151.85 C661.50373,161.78 655.77373,173.83 647.81473,184.259 C647.39473,181.3 647.44473,178.2 648.76473,175.449 C653.32473,165.34 660.94473,157.069 667.75473,148.459 C674.20473,140.22 681.90473,133.1 689.04373,125.479 C683.15473,126.41 677.38373,128.73 671.31373,127.92 C662.50473,127.35 654.61373,122.819 645.92473,121.739 C637.34373,150.61 631.11473,180.69 632.05473,210.94 C634.17473,208.03 636.18373,205.04 638.36473,202.17 C638.99373,204.29 639.61373,206.43 640.23373,208.57 C648.40373,193.1 653.82373,175.71 666.10473,162.79 C673.07373,155.39 678.68473,146.79 686.39473,140.07 C697.62473,127.92 712.14373,119.58 726.99473,112.62 C726.69473,110.9 726.09373,107.479 725.79373,105.77 C718.16473,107.719 711.57473,112.249 705.83473,117.48 L705.83473,117.48 Z M979.88473,114.97 L979.88473,114.97 C986.26473,130.56 1004.48473,135.06 1019.26473,138.299 C1011.61373,134.08 1003.47473,130.86 995.39373,127.58 C989.70373,124.04 985.36373,118.78 979.88473,114.97 L979.88473,114.97 Z M689.74373,156.53 L689.74373,156.53 C683.52373,160.04 678.36473,165.06 672.99473,169.71 C665.86373,176.239 659.07373,183.63 655.30473,192.65 C662.10473,189.099 667.72473,183.709 674.53473,180.19 C677.73373,178.58 681.32373,179.68 684.64473,180.22 C682.69473,184.819 679.77373,188.949 678.02473,193.63 C677.14473,202.049 678.97473,211.17 684.80373,217.589 C688.45373,223.58 696.44473,223.63 702.48373,225.47 C702.77473,219.78 703.11473,214.09 703.49373,208.4 C714.26473,212.489 722.88473,223.669 735.43373,221.099 C741.29473,220.09 744.16473,214.21 746.79373,209.53 C754.84473,196.969 745.59473,178.92 731.70473,175.71 C723.02473,173.12 713.91473,174.53 705.09473,172.969 C705.83473,165.699 711.06373,158.83 718.16473,156.87 C726.10473,156.27 733.59373,159.6 740.62473,162.839 C748.72473,166.51 754.62473,173.92 763.03373,176.98 C764.33473,170.93 760.85473,165.21 759.58473,159.499 C766.38473,159.66 771.67373,164.46 777.44473,167.41 C781.43473,168.97 785.58373,170.199 789.64473,171.57 C790.05473,171 790.85473,169.85 791.26373,169.27 C787.92473,165.67 784.87473,161.58 780.48373,159.2 C767.56473,153.02 754.15373,147.06 739.72473,145.81 C722.53373,145.33 705.05473,148.51 689.74373,156.53 L689.74373,156.53 Z M632.51473,241.29 L632.51473,241.29 C636.35473,232.39 637.74473,222.6 638.29473,212.98 C634.22473,221.839 630.10473,231.229 632.51473,241.29 L632.51473,241.29 Z M623.46373,247.23 L623.46373,247.23 C608.25373,247.72 593.03473,247.33 577.82373,247.53 C573.66473,247.99 569.12473,247.109 565.23373,248.959 C561.88373,251.1 560.67473,255.18 559.08473,258.61 C568.69473,264.299 580.12473,263.31 590.82373,263.88 C605.55473,264.25 620.18473,266.81 634.94473,266.17 C653.57473,265.18 672.27373,267.299 690.84373,265.409 C699.09373,265.78 699.42473,251.74 692.45373,250.14 C670.08473,247.87 647.48473,247.54 625.03473,248.479 C624.86473,240.029 624.65473,231.6 624.23473,223.17 C623.85473,231.179 623.74473,239.209 623.46373,247.23 L623.46373,247.23 Z M628.01473,271.6 L628.01473,271.6 C626.63473,274.96 625.44473,278.409 623.81473,281.66 C621.60473,284.12 618.83473,286 616.19473,287.98 C614.27473,286.249 612.42473,284.44 610.57373,282.63 C602.04373,284.79 594.62473,292.36 594.82473,301.51 C593.76373,306.109 597.03373,311.58 602.08473,310.939 C607.35473,308.53 611.26373,303.829 616.97473,302.22 C618.34373,310.18 616.86473,319.47 622.01473,326.37 C625.00473,330.54 628.06473,335.329 632.91473,337.52 C641.81473,335.179 650.01473,327.719 651.10473,318.229 C651.20473,312.359 651.54373,306.49 652.49373,300.69 C659.30473,303.029 664.42473,308.35 670.87473,311.389 C672.97373,305.87 674.15473,299.77 672.45473,293.959 C669.87473,289.27 665.73373,285.34 660.46473,284.04 C654.29473,283.879 649.00473,288.199 642.84373,287.569 C636.25473,284.71 633.88373,277.45 630.88373,271.529 C630.17473,271.549 628.73473,271.58 628.01473,271.6 L628.01473,271.6 Z" id="Fill-1495" fill="#1A1918" sketch:type="MSShapeGroup"></path>
            <path d="M780.837381,11 C787.158381,12.891 794.928381,13.941 798.468381,20.25 C793.908381,22.371 787.438381,27.491 783.457381,21.51 C779.487381,19.191 779.428381,14.85 780.837381,11" id="Fill-1496" fill="#1A1918" sketch:type="MSShapeGroup"></path>
            <path d="M1235.391,12 C1239.79,12.9 1242.551,16.269 1245.341,19.389 C1250.201,17.59 1254.811,15.159 1260,14.209 C1261.09,17.97 1263.67,21.59 1263.42,25.64 C1261.491,30.56 1257.08,33.999 1253.841,38.03 C1257.341,37.1 1260.781,35.55 1264.431,35.1 C1265,36.509 1266.161,39.33 1266.741,40.729 C1263.721,41.64 1260.701,42.499 1257.681,43.329 C1258.501,45.6 1259.351,47.86 1260.19,50.13 C1257.571,51.879 1255.321,54.229 1252.361,55.38 C1249.471,55.35 1246.881,54.999 1244.13,54.43 C1247.661,51.369 1251.391,48.519 1254.991,45.509 C1251.781,45.02 1249.13,44.56 1246.091,43.999 C1248.98,37.05 1252.99,30.61 1255.27,23.4 C1253.581,22.71 1251.921,22.02 1250.26,21.339 C1245.811,25.269 1241.201,29.1 1235.96,31.93 C1234.421,27.55 1235.27,21.59 1230,19.44 C1231.761,16.95 1233.571,14.48 1235.391,12" id="Fill-1497" fill="#1A1918" sketch:type="MSShapeGroup"></path>
            <path d="M442.767505,14.9669865 C446.787505,13.1369865 451.456505,14.2979865 455.577505,15.2369865 C454.437505,19.4069865 454.296505,24.9569865 450.247505,27.6479865 C445.817505,28.9469865 441.597505,26.7869865 438.257505,24.1579865 C434.617505,20.2579865 439.737505,16.5569865 442.767505,14.9669865" id="Fill-1498" fill="#1A1918" sketch:type="MSShapeGroup"></path>
            <path d="M1181.46,15.5019967 C1188.641,13.7209967 1195.641,17.0009967 1201.841,20.2919967 C1210.351,24.9019967 1210.861,35.6209967 1212.17,44.0319967 C1212.911,44.0419967 1214.381,44.0719967 1215.111,44.0809967 C1217.94,38.2219967 1219.591,31.0719967 1225.67,27.6409967 C1224.19,36.7119967 1221.941,46.4719967 1214.891,52.9219967 C1211.56,56.8609967 1206.091,55.2709967 1201.641,54.8919967 C1202.451,46.8419967 1208.821,37.5419967 1202.961,30.1419967 C1200.4,25.4919967 1196.531,19.6519967 1190.17,21.3819967 C1182.811,22.3819967 1171.74,22.9819967 1170.171,32.2519967 C1169.851,38.5609967 1171.71,44.6619967 1172.951,50.7919967 C1172.181,51.5609967 1171.441,52.3419967 1170.711,53.1209967 C1167.981,51.9609967 1165.25,50.7919967 1162.52,49.6609967 C1161.411,52.6719967 1160.391,55.7719967 1159.98,58.9619967 C1163.131,63.4519967 1167.351,67.8319967 1172.851,69.2309967 C1177.98,70.7019967 1183.23,71.9219967 1188.19,73.9719967 C1184.27,83.7109967 1176.99,91.6709967 1168.2,97.2319967 C1158.99,104.571997 1148.061,110.770997 1136,111.051997 C1138.781,105.420997 1145.49,104.881997 1150.6,102.490997 C1161.67,97.3519967 1170.811,88.8419967 1178.63,79.6009967 C1169.961,75.0819967 1159.341,71.4519967 1155.51,61.4609967 C1152.591,56.5219967 1155.921,50.9119967 1158.971,46.9609967 C1163.94,41.3919967 1162.07,33.1819967 1165.861,26.9919967 C1168.011,20.2919967 1174.871,16.5209967 1181.46,15.5019967" id="Fill-1499" fill="#1A1918" sketch:type="MSShapeGroup"></path>
            <path d="M309.69,39.7532461 C313.089,34.4432461 319.609,32.0232461 325.779,33.3632461 C328.899,34.5132461 331.89,37.4322461 331.94,40.9232461 C330.859,46.6932461 324.41,49.3532461 319.08,49.0332461 C311.96,50.6032461 306.109,45.8322461 300.03,43.1532461 C293.769,39.7632461 286.59,38.6832461 279.57,38.3832461 C279.37,37.1632461 279.18,35.9322461 279,34.7132461 C289.479,34.2022461 299.719,36.7732461 309.69,39.7532461 L309.69,39.7532461 Z M315.62,43.2622461 L315.62,43.2622461 C318.21,42.8232461 320.979,42.4122461 323.58,41.7822461 C320.839,42.1822461 318.27,42.6432461 315.62,43.2622461 L315.62,43.2622461 Z" id="Fill-1500" fill="#1A1918" sketch:type="MSShapeGroup"></path>
            <path d="M180.389,34.7215916 C186.4,32.2615916 192.569,36.4715916 195.31,41.6105916 C196.63,47.1815916 191.1,53.7415916 185.18,51.6915916 C181.79,50.4515916 179.019,47.9915916 176,46.1015916 C177.11,42.6405916 175.98,36.4215916 180.389,34.7215916 L180.389,34.7215916 Z M183.76,41.1515916 L183.76,41.1515916 L183.76,44.1515916 L186.759,44.1515916 L186.759,41.1515916 L183.76,41.1515916 L183.76,41.1515916 Z" id="Fill-1501" fill="#1A1918" sketch:type="MSShapeGroup"></path>
            <path d="M1072.00246,33 C1076.02246,34.489 1081.87246,32.7 1085.19246,36.049 C1086.77246,39.86 1086.16246,44.199 1087.10246,48.159 C1082.07146,48.75 1075.98246,50.509 1072.17246,46.1 C1068.08246,42.71 1070.80246,37.19 1072.00246,33" id="Fill-1502" fill="#1A1918" sketch:type="MSShapeGroup"></path>
            <path d="M1235.7,55.3869519 C1238.989,54.2869519 1242.14,55.7469519 1245.02,57.0859519 C1239.61,60.1169519 1233.78,62.2969519 1228.17,64.8559519 C1231.84,66.1459519 1236,67.2369519 1237.71,71.3059519 C1229.929,72.4469519 1222.03,73.1269519 1214.19,72.9059519 C1211.33,72.9569519 1209.76,70.2259519 1208,68.4469519 C1216.069,62.0769519 1225.51,57.1869519 1235.7,55.3869519" id="Fill-1503" fill="#1A1918" sketch:type="MSShapeGroup"></path>
            <path d="M435.637608,65.7258246 C436.068608,67.4958246 436.508608,69.2648246 436.947608,71.0348246 C430.358608,72.2348246 423.657608,72.8458246 417.037608,73.7348246 C421.058608,75.8158246 424.797608,79.0758246 429.588608,79.1148246 C438.138608,79.1658246 446.438608,75.9648246 454.988608,76.3448246 C461.518608,77.4158246 470.398608,78.3548246 472.028608,86.3958246 C466.857608,86.4248246 461.728608,86.1758246 456.567608,85.9448246 C451.667608,85.6558246 447.798608,89.3658246 443.728608,91.5658246 C447.847608,96.8558246 453.848608,98.9648246 460.317608,99.4448246 C458.658608,101.935825 456.888608,104.345825 455.168608,106.784825 C463.168608,111.325825 473.038608,113.295825 481.867608,110.085825 C483.997608,107.574825 484.548608,103.015825 488.268608,102.225825 C491.168608,101.665825 494.428608,101.115825 497.358608,101.985825 C499.807608,103.655825 500.428608,106.854825 501.967608,109.185825 C490.508608,115.755825 477.138608,119.495825 463.898608,117.275825 C457.748608,115.095825 452.078608,111.834825 446.118608,109.245825 C446.788608,111.834825 447.178608,114.345825 447.907608,116.975825 C438.068608,120.465825 426.427608,121.824825 419.658608,130.635825 C418.248608,132.675825 416.668608,134.955825 416.787608,137.554825 C417.488608,141.785825 422.277608,144.855825 426.498608,143.145825 C433.787608,141.174825 440.938608,137.625825 448.667608,138.125825 C448.658608,139.025825 448.628608,140.814825 448.617608,141.714825 C441.267608,145.654825 434.078608,149.865825 426.898608,154.085825 C421.797608,157.194825 417.287608,161.705825 415.578608,167.555825 C413.398608,176.395825 411.338608,186.135825 415.387608,194.745825 C416.258608,194.725825 417.977608,194.685825 418.838608,194.665825 C420.157608,191.705825 421.368608,188.694825 422.637608,185.705825 C423.498608,185.685825 425.217608,185.625825 426.087608,185.595825 C427.028608,190.854825 427.047608,196.234825 428.157608,201.465825 C433.028608,213.645825 444.717608,221.285825 456.808608,225.165825 C453.837608,221.705825 449.328608,219.125825 448.527608,214.265825 C457.908608,216.695825 467.018608,221.305825 477.038608,219.895825 C483.178608,218.575825 488.238608,214.295825 494.588608,213.465825 C490.728608,220.895825 484.478608,227.515825 476.577608,230.574825 C461.388608,233.985825 443.487608,230.514825 432.818608,218.515825 C428.518608,214.355825 425.677608,209.035825 421.918608,204.455825 C419.367608,203.874825 416.738608,204.385825 414.168608,204.475825 C407.858608,197.525825 406.797608,187.775825 407.028608,178.775825 C407.708608,168.315825 413.288608,159.315825 418.898608,150.815825 C416.287608,148.335825 413.697608,145.854825 411.138608,143.355825 C411.987608,136.625825 412.968608,129.154825 418.428608,124.425825 C422.817608,119.454825 429.828608,118.335825 434.668608,114.065825 C436.447608,109.845825 438.847608,105.844825 442.597608,103.095825 C440.477608,98.9758246 438.318608,94.8758246 436.278608,90.7148246 C438.387608,88.0258246 440.538608,85.3748246 442.678608,82.7148246 C435.108608,83.8848246 426.998608,85.4448246 419.557608,82.7558246 C415.148608,80.4458246 411.338608,76.7148246 408.987608,72.3248246 C407.787608,70.0258246 410.168608,67.8358246 412.137608,67.0158246 C419.568608,63.5458246 427.797608,65.5758246 435.637608,65.7258246 Z" id="Fill-1504" fill="#1A1918" sketch:type="MSShapeGroup"></path>
            <path d="M1239,69.779 C1241.13,69.15 1243.289,68.56 1245.469,68 C1245.65,70.39 1247.889,73.549 1245.719,75.46 C1242.26,75.739 1240.79,72.02 1239,69.779" id="Fill-1505" fill="#1A1918" sketch:type="MSShapeGroup"></path>
            <path d="M1247.8075,75.0044382 C1255.3775,74.7644382 1258.1265,84.3144382 1255.6275,89.9634382 C1251.1075,96.6344382 1246.0275,103.274438 1238.9775,107.423438 C1234.4965,110.294438 1233.1775,116.234438 1228.8465,119.144438 C1217.9265,122.414438 1204.9675,119.723438 1197.5875,110.664438 C1191.8265,106.023438 1191.8375,98.1834382 1190.1075,91.6434382 C1182.2775,97.3444382 1176.0175,105.304438 1167.1565,109.524438 C1158.4265,113.513438 1149.7475,118.594438 1139.9265,119.164438 C1133.3075,120.063438 1126.6565,119.984438 1120.0075,120.014438 C1119.9975,118.843438 1119.9975,117.674438 1120.0075,116.513438 C1134.9165,114.634438 1150.5175,112.884438 1163.6475,104.954438 C1173.4175,97.8334382 1182.6465,89.9934382 1191.7575,82.0544382 C1194.3765,79.7444382 1198.0175,79.6434382 1201.2875,78.7244382 C1201.9975,87.2634382 1198.2875,95.8044382 1200.1875,104.174438 C1206.7675,111.423438 1217.3175,114.634438 1226.7675,111.864438 C1225.4375,107.523438 1222.9475,103.674438 1219.0675,101.214438 C1225.2275,100.763438 1231.7075,101.904438 1237.6965,99.9144382 C1242.1875,97.7244382 1246.6665,94.1444382 1247.8575,89.0634382 C1249.0175,84.4544382 1248.5675,79.6334382 1247.8075,75.0044382" id="Fill-1506" fill="#1A1918" sketch:type="MSShapeGroup"></path>
            <path d="M895,94.0487955 C897.17,90.0687955 901.52,84.2387955 906.791,86.5087955 C910.901,87.7987955 914.691,93.4487955 911.041,97.1387955 C908.061,101.927795 901.951,101.498795 897.06,102.397795 C896.381,99.6087955 895.241,96.9087955 895,94.0487955" id="Fill-1507" fill="#1A1918" sketch:type="MSShapeGroup"></path>
            <path d="M331.19,89.6813979 C338.049,86.4403979 345.25,95.4803979 342.139,101.651398 C338.27,106.831398 331.14,104.521398 326,102.821398 C327.12,98.8413979 325.55,91.0313979 331.19,89.6813979" id="Fill-1508" fill="#1A1918" sketch:type="MSShapeGroup"></path>
            <path d="M1014.38016,111.12313 C1017.46016,107.32313 1023.31016,104.21313 1028.02016,107.18313 C1033.46016,110.15313 1028.21016,117.32313 1026.73016,121.23313 C1021.94016,120.00313 1011.93016,118.66213 1014.38016,111.12313" id="Fill-1509" fill="#1A1918" sketch:type="MSShapeGroup"></path>
            <path d="M238.331,111.303207 C241.871,110.394207 246.531,108.694207 249.42,111.723207 C252.801,114.334207 250.72,120.713207 247.101,122.103207 C242.28,127.134207 235.611,122.833207 231,120.204207 C233.171,117.094207 234.261,112.413207 238.331,111.303207 L238.331,111.303207 Z M240.27,114.764207 L240.27,114.764207 C239.001,116.034207 241.121,118.153207 242.391,116.884207 C243.55,115.664207 241.491,113.594207 240.27,114.764207 L240.27,114.764207 Z" id="Fill-1510" fill="#1A1918" sketch:type="MSShapeGroup"></path>
            <path d="M1175.209,113 C1180.69,113.83 1187.94,117.56 1186.63,124.239 C1186.27,130.43 1178.92,131.24 1174.38,132.62 C1172.79,131.28 1169.6,128.61 1168,127.27 C1168.63,121.719 1172.099,117.37 1175.209,113" id="Fill-1511" fill="#1A1918" sketch:type="MSShapeGroup"></path>
            <path d="M981.310717,151.625885 C984.560717,144.895885 992.890717,149.075885 997.540717,151.875885 C994.270717,158.545885 987.980717,163.385885 981.069717,165.835885 C979.259717,161.265885 977.390717,155.764885 981.310717,151.625885" id="Fill-1512" fill="#1A1918" sketch:type="MSShapeGroup"></path>
            <path d="M243.991589,154.498421 C249.841589,157.048421 255.272589,153.247421 261.091589,154.138421 C261.082589,156.258421 261.072589,160.498421 261.062589,162.618421 C256.062589,164.068421 249.511589,168.377421 244.681589,164.377421 C241.392589,162.208421 243.931589,157.717421 243.991589,154.498421" id="Fill-1513" fill="#1A1918" sketch:type="MSShapeGroup"></path>
            <path d="M376.440027,195.42 C374.031027,186.85 381.950027,180.35 389.561027,179 C391.570027,181.089 393.601027,183.17 395.651027,185.229 C396.000027,190.969 393.620027,196.12 390.581027,200.799 C385.871027,199.7 379.511027,199.99 376.440027,195.42" id="Fill-1514" fill="#1A1918" sketch:type="MSShapeGroup"></path>
            <path d="M863.3,188.367655 C868.809,186.737655 872.98,190.916655 877.35,193.287655 C875.21,197.957655 872.94,204.056655 867.589,205.837655 C863.32,206.207655 859.64,204.026655 856,202.247655 C856.9,197.027655 858.79,191.546655 863.3,188.367655" id="Fill-1515" fill="#1A1918" sketch:type="MSShapeGroup"></path>
            <path d="M641,191.44 C642.76,190.601 644.53,189.78 646.32,189 C645.22,191.25 644.11,193.5 643,195.741 C642.319,194.31 641.65,192.871 641,191.44" id="Fill-1516" fill="#1A1918" sketch:type="MSShapeGroup"></path>
            <path d="M589.037879,220 C592.047879,221.239 595.117879,222.6 598.166879,223.84 C597.097879,227.1 597.787879,231.92 594.507879,234.229 C591.547879,236.269 586.207879,237.43 584.396879,233.54 C582.727879,228.24 586.717879,224.18 589.037879,220" id="Fill-1517" fill="#1A1918" sketch:type="MSShapeGroup"></path>
            <path d="M653.388644,233.519735 C651.079644,227.199735 659.618644,222.349735 664.259644,226.609735 C668.979644,229.219735 665.299644,234.929735 664.429644,238.859735 C660.898644,237.979735 654.189644,238.598735 653.388644,233.519735" id="Fill-1518" fill="#1A1918" sketch:type="MSShapeGroup"></path>
            <path d="M499.309356,244.649 C502.148356,238.849 509.849356,241.63 514.838356,240 C516.009356,243.46 518.239356,246.73 518.378356,250.48 C513.569356,254.299 506.999356,256.309 500.939356,255.049 C496.488356,253.789 495.619356,247.52 499.309356,244.649" id="Fill-1519" fill="#1A1918" sketch:type="MSShapeGroup"></path>
            <path d="M746.775332,247 C751.584332,247.901 756.765332,249.381 759.735332,253.631 C759.235332,257.311 758.185332,260.841 756.565332,264.22 C751.534332,262.911 744.395332,265.12 741.004332,260.021 C740.854332,254.921 744.635332,251.221 746.775332,247 L746.775332,247 Z M748.555332,255.531 L748.555332,255.531 C747.374332,256.751 749.445332,258.811 750.675332,257.651 C751.934332,256.38 749.815332,254.26 748.555332,255.531 L748.555332,255.531 Z" id="Fill-1520" fill="#1A1918" sketch:type="MSShapeGroup"></path>
            <path d="M571.279006,284 C574.559006,285.74 577.748006,287.62 580.978006,289.479 C580.299006,294.47 579.959006,301.549 572.849006,301.53 C571.719006,295.769 570.419006,289.88 571.279006,284" id="Fill-1521" fill="#1A1918" sketch:type="MSShapeGroup"></path>
            <path d="M687.111,289.730596 C691.431,287.759596 695.42,290.180596 699.011,292.220596 L699.011,300.110596 C695.99,301.470596 693.311,303.630596 690.071,304.380596 C687.6,302.909596 685.33,301.150596 683,299.520596 C684.211,296.300596 684.44,292.250596 687.111,289.730596" id="Fill-1522" fill="#1A1918" sketch:type="MSShapeGroup"></path>
        </g>
    </g>
</svg>