<svg xmlns="http://www.w3.org/2000/svg" xmlns:xlink="http://www.w3.org/1999/xlink" xmlns:sketch="http://www.bohemiancoding.com/sketch/ns" width="1267px" height="344px" viewBox="0 0 1267 344" version="1.1">
  <defs>
    <style>
      <![CDATA[
        .dark {
          fill: rgb(105, 105, 105);
        }

        .light {
          fill: rgb(255, 255, 255);
        }
      ]]>
    </style>
  </defs>
  <g stroke="none" stroke-width="1" fill="none" fill-rule="evenodd" sketch:type="MSPage">
    <g sketch:type="MSLayerGroup">
      <path d="M113 12.6 C114.421 10.5 116.2 14.5 113.6 13.9 C113.43 13.6 113.1 13 113 12.6" sketch:type="MSShapeGroup" class="light" />
      <path d="M814.46 29.2 C828.779 21.9 844.3 17.2 860.1 14.2 C868.849 13.7 877.6 15.7 886.4 15.3 C896.83 14.8 907.3 13.9 917.8 14 C932.69 14.9 947.3 18 962 20.5 C991.73 24.7 1022.7 31 1052 21.2 C1049.78 27.2 1043.3 29.6 1037.7 31.2 C1031.71 31.9 1025.8 30.4 1020 29.6 C1019.54 30.5 1019.1 31.5 1018.7 32.5 C1024.96 36.9 1031 41.7 1035.8 47.6 C1023.409 55.4 1007.7 52.6 994.4 49 C982.88 44 972 37.4 959.8 34.1 C951.859 32 943.2 33.6 935.7 30 C929.77 27.3 922.9 27.2 916.8 29.3 C918.72 36.4 923.8 44.4 932.2 44.3 C943.67 43.9 956 36 966.9 42.7 C966.889 43.4 966.9 44.9 966.9 45.6 C962.739 49 956.6 51 955.6 57.1 C960.28 57.2 965 57.1 969.7 57.3 C981.569 61.3 991 72.1 992.6 84.6 C990.859 90.6 984.3 94.1 978.5 95.1 C970.62 96.4 964.1 91.1 956.7 89.5 C960.859 101.4 962 114.1 959.1 126.5 C959.069 132.4 955.7 137.4 951.6 141.4 C946.499 146.4 940.9 151.3 934.1 154.1 C933.71 144.7 939.7 136.9 941 127.9 C932.24 132.2 928.7 143 919 145.8 C910.02 148 900.7 144.9 893 140.6 C887.15 136.5 884 129.8 881.9 123.1 C886.279 125.1 890.2 127.9 894.7 129.8 C904.05 132.2 914.7 129.2 921 121.7 C926.37 115.2 931.7 107.8 932.4 99 C934.799 84.5 926.4 70.9 916.5 61.1 C907.12 52.3 896.9 43.5 884 40.4 C875.97 37.7 867.5 36.5 859.3 34.1 C853.82 32.6 849 28.3 843 28.9 C837.25 29.8 831.9 32.3 826.3 33.8 C825.889 32.1 825.1 28.6 824.7 26.8 C811.46 30.1 804.9 43.1 794 49.9 C794.29 46.8 794 43.5 795 40.6 C800.489 35.3 807.8 32.6 814.5 29.2" sketch:type="MSShapeGroup" class="light" />
      <path d="M611.84993 51 C613.14893 37.1 618.2 22.5 629.9 14 C634.85893 19 640.6 23.6 644.5 29.6 C647.29993 35.8 646.4 43 649.2 49.2 C650.81893 49 652.8 49 653.8 47.6 C658.03993 42.6 659.3 34.2 667.6 34.2 C665.85993 48.6 659.6 62.7 649.5 73.3 C646.33993 76.7 643.7 80.7 642.4 85.2 C640.89893 89.4 644.1 92.5 646.2 95.5 C657.45993 90.8 660.9 78 669.4 70.1 C674.17993 64.8 682 65.1 688.4 63.2 C691.96993 62.3 694.3 66.3 694.8 69.4 C698.34993 85.5 687.9 101.4 674.4 109.3 C674.30993 110.4 674.2 111.6 674.2 112.7 C679.34993 113.5 684.7 114.2 689.4 116.7 C685.36893 120.6 680 123.4 674.2 122.6 C663.01993 121.9 653.7 114.9 643 112.4 C636.42993 130.1 634.5 149 630.6 167.3 C628.33993 184.6 626.7 202 624.7 219.3 C623.84993 205.3 623.6 191.3 622.9 177.3 C622.82993 160 622.7 142.3 617.6 125.6 C614.85993 120 611.4 112.1 604.5 111 C598.75993 116.3 594.4 125.3 585.2 123.8 C576.26993 124.3 567.8 118.4 564.6 110.2 C568.66893 109.5 572.8 109 576.9 108.4 C572.56993 103.4 566.4 99.1 564.9 92.3 C563.72893 83 563.4 73.2 565.9 64.1 C573.74893 65.3 580.1 70.2 586.1 75.1 C589.22893 77.4 591.1 80.8 593 84.1 C595.00993 88 594.7 92.6 596.7 96.5 C599.76993 99.6 604.6 99.9 608.4 101.5 C609.60993 94.7 611.7 87 607.1 81 C601.85893 72.8 596.6 64.5 592.9 55.4 C590.08893 49.1 591.9 42.3 593.9 36.1 C601.88993 38.4 605.9 45.9 611.8 51" sketch:type="MSShapeGroup" class="light" />
      <path d="M122 19 C123.83 19.2 125.7 19.3 127.5 19.6 C125.801 20.6 124.1 21.7 122.4 22.7 C122.301 21.8 122.1 19.9 122 19" sketch:type="MSShapeGroup" class="light" />
      <path d="M288.62 24.5 C304.111 23.8 319.5 19.1 335.1 20.9 C342.55 21.1 350 19.6 357.5 20.1 C379.841 22.8 401.5 29.6 422.1 38.3 C425.24 39.7 428.2 41.6 431.1 43.5 C422.82 43.9 414.2 42.1 406.3 44.8 C395.201 48.4 383.3 44.5 372 46.3 C364.481 47.8 356.8 48.7 349.6 51.7 C339.031 55.4 330.5 63.1 322 70.2 C314.75 76.2 311.3 85.3 309.2 94.2 C306.05 107.5 310.7 121 316.7 132.8 C320.4 140.1 327 145.7 334.3 149.1 C344.12 152.7 355.4 150.9 363.4 144.1 C358.841 151 351.5 155.6 343.8 158 C328.591 160.5 309.6 159.5 299.5 145.9 C293.041 140.7 297.3 130.2 290.2 125.7 C286.801 132.1 287 142 278.2 143.8 C275.731 136.6 273.5 128.5 275.8 120.9 C277.771 115.4 280.2 110.1 282.9 104.9 C286.601 98.2 292.9 93.1 295.2 85.6 C295.831 81.9 291.5 78.7 288.6 81.8 C281.301 87.8 269.9 92.8 261.5 86.1 C263.611 83.1 265.8 80.1 267.2 76.6 C260.351 75.7 253.2 76.9 246.6 74.9 C243.44 73.4 237.6 69.9 240.7 65.8 C244.161 61.4 249.8 59.3 254.7 56.9 C263.921 52.2 274.4 55.4 284.3 55.2 C281.441 48.6 278.2 42 276.2 35 C274.121 35.9 271.9 36.6 270.1 38.1 C268.911 40.7 268.6 43.5 267.8 46.2 C255.251 48.3 244.6 55.5 234.3 62.5 C230.06 66 233.4 71.7 234.4 76.1 C228.371 72.2 223.7 66.7 220.8 60.1 C226.34 56.1 231.6 51.2 238.7 50.6 C241.58 50.6 242.6 47.9 243.8 45.7 C235.641 45 227.4 45.9 219.3 45 C210.751 41.5 205.5 32.8 203 24.2 C217.421 23.9 231.2 29.6 245.7 28.8 C260.141 28.9 274.2 24.6 288.6 24.5 L288.62 24.5 Z M309.251 39.5 L309.251 39.5 C299.28 36.5 289 34 278.6 34.5 C278.741 35.7 278.9 36.9 279.1 38.2 C286.151 38.5 293.3 39.5 299.6 42.9 C305.67 45.6 311.5 50.4 318.6 48.8 C323.971 49.1 330.4 46.5 331.5 40.7 C331.451 37.2 328.5 34.3 325.3 33.1 C319.17 31.8 312.6 34.2 309.3 39.5 L309.251 39.5 Z" sketch:type="MSShapeGroup" class="light" />
      <path d="M1128.35171 21.4 C1129.61171 20.1 1131.7 22.2 1130.5 23.5 C1129.24171 24.7 1127.2 22.6 1128.4 21.4" sketch:type="MSShapeGroup" class="light" />
      <path d="M134.881 24 C137.061 24.5 139.2 25 141.4 25.5 C139.901 28.5 138.3 31.5 136.7 34.4 C135.121 33.7 133.6 33 132 32.3 C132.991 29.5 133.9 26.8 134.9 24" sketch:type="MSShapeGroup" class="light" />
      <path d="M690.861 27.3 C696.5 26.1 702.2 28.5 706.9 31.5 C711.751 36.8 715.8 44.1 714.7 51.6 C713.78 64 710.7 76.3 711.7 88.8 C712.601 94.4 714.9 99.5 716.7 104.8 C708.791 111.1 701.1 117.8 692.7 123.5 C693.98 120.4 695.4 117.4 696.6 114.3 C693.861 111.9 690.8 109.9 688.3 107.2 C692.84 99.9 698.8 93.1 700.7 84.5 C701.951 75.5 702.2 66 698.9 57.5 C686.541 56.7 674.8 60.2 664 65.7 C668.551 56.1 673.3 46.5 675.4 36 C677.611 36.8 679.8 37.5 682 38.2 C684.881 34.5 687 30.1 690.9 27.3" sketch:type="MSShapeGroup" class="light" />
      <path d="M1122.49152 27.5 C1123.71052 26 1125.9 28.1 1124.4 29.4 C1123.14152 30.9 1121 28.7 1122.5 27.5" sketch:type="MSShapeGroup" class="light" />
      <path d="M1114.71128 33 C1117.31228 33.2 1118 36.5 1115.4 37.5 C1112.73128 37.3 1112 34 1114.7 33" sketch:type="MSShapeGroup" class="light" />
      <path d="M146.28 36 C148.23 37.5 150.4 38.9 151.8 41 C153.049 46.5 144.8 51.5 141 46.4 C142.03 42.6 144.4 39.4 146.3 36" sketch:type="MSShapeGroup" class="light" />
      <path d="M184 41 L186.999 41 L186.999 44 L184 44 L184 41" sketch:type="MSShapeGroup" class="light" />
      <path d="M316 43.5 C318.65 42.9 321.2 42.4 324 42 C321.359 42.6 318.6 43 316 43.5" sketch:type="MSShapeGroup" class="light" />
      <path d="M1105 46.2 C1106.919 45.7 1108.8 45.1 1110.8 45 C1111.57 46.3 1112.1 47.6 1112.7 49 C1110.98 49.1 1107.5 49.3 1105.7 49.4 C1105.549 48.6 1105.2 47 1105 46.2" sketch:type="MSShapeGroup" class="light" />
      <path d="M149 60.4 C149.8 56.2 152.2 52.6 155.4 50 C157.16 51.4 160.6 54.3 162.3 55.7 C161.129 57.7 160.4 60 158.9 61.8 C155.52 61.8 152.2 61.2 149 60.4" sketch:type="MSShapeGroup" class="light" />
      <path d="M1104.3517 61.4 C1105.6107 60.1 1107.7 62.2 1106.5 63.5 C1105.2417 64.7 1103.2 62.6 1104.4 61.4" sketch:type="MSShapeGroup" class="light" />
      <path d="M909.03 63 C910.32 64.8 911.7 66.6 912.8 68.6 C909.141 68.7 905.6 68.6 902 68.4 C904.38 66.6 906.7 64.8 909 63" sketch:type="MSShapeGroup" class="light" />
      <path d="M341 64.6 C342.42 62.5 344.2 66.5 341.6 65.9 C341.431 65.6 341.1 65 341 64.6" sketch:type="MSShapeGroup" class="light" />
      <path d="M1064.72 66.3 C1072.759 65.1 1080.6 67.8 1088.6 68 C1091.139 74.4 1094.9 80.1 1097.7 86.4 C1098.9 89.1 1101.8 90.2 1104.1 91.8 C1107.36 83.7 1108.3 73.5 1115.8 67.9 C1117 71.9 1118.6 75.8 1120.5 79.4 C1114.02 87.9 1107.4 96.5 1102.6 106.1 C1094.44 119.3 1083.2 131.6 1068.3 136.8 C1056.32 142.2 1042.9 142.7 1030 142.6 C1045.899 141.8 1062.5 137.9 1074.7 127.1 C1083.779 118.6 1091.5 106.9 1090.7 94 C1090.13 85.4 1083 79.2 1076.8 74.2 C1070.169 71.5 1062.7 72 1055.8 71 C1058.619 69.2 1061.4 67.2 1064.7 66.3" sketch:type="MSShapeGroup" class="light" />
      <path d="M160.419 67 C161.21 67 162.8 67 163.6 67 C163.479 67.7 163.3 69 163.2 69.6 C160.79 71 158.4 72.3 156 73.7 C157.45 71.4 158.9 69.2 160.4 67" sketch:type="MSShapeGroup" class="light" />
      <path d="M343.6 66 C350.62 66.5 356.7 70.1 362.8 73.1 C360.67 73.7 358.6 74.2 356.5 74.8 C364.15 80.6 371.9 86.9 376.3 95.7 C378.691 101.2 380.8 106.8 382.7 112.5 C385.45 119.9 382.4 127.7 381 134.9 C376.531 151.5 360.4 162.4 344.2 165.6 C332.75 167 321 167.4 309.6 165.5 C303.331 162 296.9 157.8 293 151.7 C299.191 155.3 304.7 160.1 311.6 162.4 C323.801 166.4 337.4 166.7 349.5 162.2 C357.02 157.8 366.2 153.9 369.4 145.2 C373.911 135.1 370.7 119.7 359.2 115.9 C359.311 121.5 360.4 126.9 360.5 132.5 C359.41 140.5 350.5 146.7 342.6 144.7 C330.741 141.9 321.2 132.1 317.9 120.4 C315.85 112.7 312.7 104.6 314.9 96.6 C316.42 86.1 323.7 78 330 70.1 C337.891 70.6 345.5 72.9 353.2 74.2 C353.42 73 353.6 71.8 353.8 70.6 C350.421 69.1 347 67.5 343.6 66 L343.6 66 Z M331.141 89.8 L331.141 89.8 C325.501 91.2 327.1 99 326 103 C331.091 104.7 338.2 107 342.1 101.8 C345.201 95.6 338 86.6 331.1 89.8 L331.141 89.8 Z" sketch:type="MSShapeGroup" class="light" />
      <path d="M1127.799 67 C1135.079 67.4 1141.9 71.1 1146.2 77 C1138.48 77.1 1130.7 77 1123 77.4 C1124.93 74.1 1126.3 70.5 1127.8 67" sketch:type="MSShapeGroup" class="light" />
      <path d="M909.340423 72.2 C913.859423 71.6 920.5 72.5 920.9 78.5 C923.390423 86.1 927.4 94.3 924.8 102.5 C921.640423 112.7 914.2 122.6 903.2 124.9 C895.069423 127.2 887 120.7 884.7 113.3 C884.230423 108 884.4 102.7 883.7 97.5 C877.770423 101.5 875.7 108.8 875.2 115.5 C875.609423 125 879.6 134.3 887 140.4 C896.069423 151.9 912.4 150 925.2 152.4 C928.090423 155 927.7 159.6 928.8 163.2 C913.370423 165.7 895.5 166.4 882.7 155.8 C871.610423 149.2 865.1 137.1 862.6 124.8 C860.380423 114.1 864.9 103.9 868.6 94.2 C871.789423 88.7 876.1 83.5 882 80.8 C890.749423 77 899.8 73.6 909.3 72.2 L909.340423 72.2 Z M894.239423 93.8 L894.239423 93.8 C894.480423 96.6 895.6 99.3 896.3 102.1 C901.190423 101.2 907.3 101.6 910.3 96.9 C913.930423 93.2 910.1 87.5 906 86.2 C900.759423 84 896.4 89.8 894.2 93.8 L894.239423 93.8 Z" sketch:type="MSShapeGroup" class="light" />
      <path d="M363.96 74 C374.59 77.2 381.8 86.2 387.1 95.5 C395.19 111.7 395.3 132.2 385.7 147.8 C382.22 151.9 378.3 155.8 374.8 159.9 C365.929 168.2 353.5 170 342 172.1 C356.639 168.5 369.9 160.1 379.9 149 C389.45 137.5 389.6 121.5 387 107.5 C383.71 93.9 374.3 82.9 364 74" sketch:type="MSShapeGroup" class="light" />
      <path d="M999 74.6 C1000.411 72.5 1002.2 76.5 999.6 75.9 C999.431 75.6 999.1 75 999 74.6" sketch:type="MSShapeGroup" class="light" />
      <path d="M253.91 81 C250.94 90 240.8 92.7 234.2 98.3 C219.85 109.5 202.5 116.2 185 120.6 C189.299 114.4 197.9 114.2 204 110.9 C221.68 102.7 235.8 88.4 253.9 81" sketch:type="MSShapeGroup" class="light" />
      <path d="M868.491538 83.5 C869.711538 82 871.9 84.1 870.4 85.4 C869.141538 86.9 867 84.7 868.5 83.5" sketch:type="MSShapeGroup" class="light" />
      <path d="M1001.29 85 C1009.661 88.7 1018.2 92 1027.2 94.2 C1032.461 95.6 1035.9 100.3 1040.9 102.2 C1052.291 107 1063.8 111.2 1075.2 116 C1075.221 116.8 1075.3 118.2 1075.4 118.9 C1061.041 134.6 1036.8 140.8 1017.1 132.2 C1009.48 128.8 1001.4 125.6 995 120.2 C990.181 115.2 985.9 109.8 982 104.1 C990.391 100.3 997.9 93.8 1001.3 85 L1001.29 85 Z M1014.331 111.1 L1014.331 111.1 C1011.881 118.7 1021.9 120 1026.7 121.2 C1028.161 117.3 1033.4 110.2 1028 107.2 C1023.261 104.2 1017.4 107.3 1014.3 111.1 L1014.331 111.1 Z" sketch:type="MSShapeGroup" class="light" />
      <path d="M746.526041 87 C750.447041 87.8 744.2 90.4 746.5 87" sketch:type="MSShapeGroup" class="light" />
      <path d="M864.793797 87 C865.583797 87 867.2 87 868 87 C860.333797 98.1 856.2 111.3 857.3 124.8 C856.313797 131.1 859.8 136.5 862.9 141.5 C868.763797 150.7 876.8 158.7 886.4 164 C896.063797 168.1 906.8 169 917.2 169.5 C925.563797 170.2 934.1 167.9 941.1 163.3 C945.172797 160.2 946.3 154.8 950 151.4 C953.122797 148.8 957 147.1 960.1 144.4 C963.162797 141 964.2 136.3 965.8 132.2 C969.073797 122.7 966.6 111.9 971.2 102.9 C972.912797 108.3 974.7 114 975 119.7 C974.273797 127 972.6 134.3 969.7 141.1 C965.543797 147.1 959.9 151.9 954.9 157.2 C950.083797 161.7 945.6 167.5 938.8 169 C924.572797 171.6 909.9 174.5 895.4 171.9 C887.943797 170.6 881.2 166.8 875.2 162.3 C864.053797 156 860.2 142.7 855.4 131.7 C851.843797 124.9 852.8 117.2 854.7 110.1 C856.262797 101.7 861.9 94.9 864.8 87" sketch:type="MSShapeGroup" class="light" />
      <path d="M243.279 100 C247.93 97.2 252.4 93.7 257.6 92 C264.83 94.2 272.4 95.2 279.9 95.7 C275.37 104.9 268.1 112.3 261.4 120 C258.339 123.6 253.8 125.3 249.9 127.5 C241.29 132.5 231.5 135.6 221.6 135.2 C210.91 136.2 200.9 131.8 192 126.6 C209.68 119 227.7 111.5 243.3 100 L243.279 100 Z M238.81 111.3 L238.81 111.3 C234.74 112.4 233.7 117.1 231.5 120.2 C236.09 122.9 242.8 127.2 247.6 122.1 C251.199 120.7 253.3 114.4 249.9 111.7 C247.01 108.7 242.3 110.4 238.8 111.3 L238.81 111.3 Z" sketch:type="MSShapeGroup" class="light" />
      <path d="M705.873844 117.7 C711.613844 112.5 718.2 107.9 725.8 106 C726.132844 107.7 726.7 111.1 727 112.8 C712.182844 119.8 697.7 128.2 686.4 140.3 C678.723844 147 673.1 155.6 666.1 163 C653.862844 175.9 648.4 193.3 640.3 208.8 C639.652844 206.7 639 204.5 638.4 202.4 C636.222844 205.3 634.2 208.3 632.1 211.2 C631.153844 180.9 637.4 150.8 646 122 C654.652844 123 662.5 127.6 671.4 128.2 C677.422844 129 683.2 126.6 689.1 125.7 C681.943844 133.3 674.2 140.4 667.8 148.7 C660.983844 157.3 653.4 165.6 648.8 175.7 C647.483844 178.4 647.4 181.5 647.9 184.5 C655.812844 174.1 661.5 162 670.2 152.1 C681.543844 140.1 693.1 128.2 705.9 117.7 L705.873844 117.7 Z M640.453844 191.8 L640.453844 191.8 C641.103844 193.3 641.8 194.7 642.5 196.1 C643.563844 193.9 644.7 191.6 645.8 189.4 C643.983844 190.2 642.2 191 640.5 191.8 L640.453844 191.8 Z" sketch:type="MSShapeGroup" class="light" />
      <path d="M240.390682 114.3 C241.611682 113.2 243.7 115.2 242.5 116.5 C241.241682 117.7 239.1 115.6 240.4 114.3" sketch:type="MSShapeGroup" class="light" />
      <path d="M980 115 C985.479 118.8 989.8 124.1 995.5 127.6 C1003.59 130.9 1011.7 134.1 1019.4 138.3 C1004.6 135.1 986.4 130.6 980 115" sketch:type="MSShapeGroup" class="light" />
      <path d="M690.439 156.8 C705.75 148.7 723.2 145.6 740.4 146 C754.849 147.3 768.3 153.3 781.2 159.4 C785.57 161.8 788.6 165.9 792 169.5 C791.55 170.1 790.8 171.2 790.3 171.8 C786.279 170.4 782.1 169.2 778.1 167.6 C772.369 164.7 767.1 159.9 760.3 159.7 C761.55 165.4 765 171.2 763.7 177.2 C755.32 174.2 749.4 166.7 741.3 163.1 C734.289 159.8 726.8 156.5 718.9 157.1 C711.759 159.1 706.5 165.9 705.8 173.2 C714.61 174.8 723.7 173.4 732.4 175.9 C746.29 179.2 755.5 197.2 747.5 209.8 C744.86 214.4 742 220.3 736.1 221.3 C723.58 223.9 715 212.7 704.2 208.6 C703.81 214.3 703.5 220 703.2 225.7 C697.14 223.9 689.1 223.8 685.5 217.8 C679.67 211.4 677.8 202.3 678.7 193.9 C680.469 189.2 683.4 185.1 685.3 180.5 C682.019 179.9 678.4 178.8 675.2 180.4 C668.42 183.9 662.8 189.3 656 192.9 C659.769 183.9 666.6 176.5 673.7 169.9 C679.06 165.3 684.2 160.3 690.4 156.8" sketch:type="MSShapeGroup" class="light" />
      <path d="M282.16846 150 C288.86846 155.4 293.9 162.8 301.4 167.2 C305.84846 169.6 310.8 170.9 315.4 172.7 C304.09846 171.4 291.4 167.8 285.1 157.5 C283.71746 155.2 281.3 152.9 282.2 150" sketch:type="MSShapeGroup" class="light" />
      <path d="M632.71558 241.3 C630.30558 231.2 634.4 221.9 638.5 213 C637.94558 222.6 636.6 232.4 632.7 241.3" sketch:type="MSShapeGroup" class="light" />
      <path d="M623.379 247.1 C623.66 239 623.8 231 624.1 223 C624.57 231.4 624.8 239.9 625 248.3 C647.4 247.4 670 247.7 692.4 250 C699.34 251.6 699 265.6 690.8 265.2 C672.189 267.1 653.5 265 634.9 266 C620.1 266.6 605.5 264.1 590.7 263.7 C580.04 263.1 568.6 264.1 559 258.4 C560.59 255 561.8 250.9 565.1 248.8 C569.04 246.9 573.6 247.8 577.7 247.4 C592.95 247.2 608.2 247.6 623.4 247.1" sketch:type="MSShapeGroup" class="light" />
      <path d="M748.351702 256.4 C749.611702 255.1 751.7 257.2 750.5 258.5 C749.241702 259.7 747.2 257.6 748.4 256.4" sketch:type="MSShapeGroup" class="light" />
      <path d="M628.389901 272.1 C629.109901 272.1 630.5 272 631.3 272 C634.258901 277.9 636.6 285.2 643.2 288 C649.379901 288.7 654.7 284.4 660.8 284.5 C666.108901 285.8 670.2 289.7 672.8 294.4 C674.529901 300.2 673.3 306.3 671.2 311.9 C664.799901 308.8 659.7 303.5 652.9 301.2 C651.918901 307 651.6 312.8 651.5 318.7 C650.389901 328.2 642.2 335.6 633.3 338 C628.439901 335.8 625.4 331 622.4 326.8 C617.239901 319.9 618.7 310.7 617.3 302.7 C611.638901 304.3 607.7 309 602.5 311.4 C597.408901 312.1 594.1 306.6 595.2 302 C594.999901 292.8 602.4 285.3 610.9 283.1 C612.799901 284.9 614.6 286.7 616.6 288.5 C619.209901 286.5 622 284.6 624.2 282.1 C625.819901 278.9 627 275.4 628.4 272.1" sketch:type="MSShapeGroup" class="light" />
      <path d="M74 5.8 C80.381 1 88.9 -1.1 96.8 0.6 C107.861 2.2 118.9 4.5 129.6 7.7 C132.391 8.5 134.3 10.9 136.4 12.7 C139.691 16.1 144.1 18.2 147.4 21.6 C154.391 30.2 156.3 42.6 166.5 48.5 C168.29 54.1 168.8 60.6 172.8 65.2 C175.081 68.8 179.1 70.2 182.6 72.1 C178.351 76.1 173.8 80 168.4 82.2 C167.711 80.2 166.4 76.1 165.8 74.1 C160.901 78.4 160.2 85.2 159 91.1 C158.191 91.2 156.5 91.2 155.7 91.3 C152.261 86.2 148.7 81.1 145.9 75.7 C145.501 71.3 147.3 66.7 144.5 62.8 C142.331 55.6 134.9 51.7 133.6 44.2 C132.841 41.4 130.2 39.8 128.3 37.7 C122.78 32.6 118.5 26.1 112 22 C100.541 14.2 87.2 9.9 74 5.8 L74 5.8 Z M112.46 13.3 L112.46 13.3 C112.601 13.6 112.9 14.2 113 14.6 C115.631 15.2 113.9 11.1 112.5 13.3 L112.46 13.3 Z M121.85 19 L121.85 19 C121.95 19.9 122.2 21.8 122.3 22.7 C123.961 21.7 125.7 20.6 127.3 19.6 C125.501 19.4 123.7 19.2 121.8 19 L121.85 19 Z M135.061 23.9 L135.061 23.9 C134.09 26.7 133.2 29.4 132.2 32.2 C133.741 32.9 135.3 33.6 136.9 34.3 C138.521 31.4 140.1 28.4 141.6 25.4 C139.411 24.9 137.2 24.4 135.1 23.9 L135.061 23.9 Z M146.071 36.5 L146.071 36.5 C144.221 40 141.8 43.2 140.8 47 C144.551 52 152.8 47 151.6 41.5 C150.221 39.4 148 38.1 146.1 36.5 L146.071 36.5 Z M148.751 60.6 L148.751 60.6 C151.991 61.4 155.3 62 158.6 62 C160.13 60.2 160.9 57.9 162 55.9 C160.331 54.5 156.9 51.7 155.2 50.2 C151.91 52.8 149.6 56.4 148.8 60.6 L148.751 60.6 Z M159.87 67.1 L159.87 67.1 C158.381 69.4 156.9 71.6 155.5 73.8 C157.85 72.5 160.2 71.1 162.6 69.8 C162.74 69.1 162.9 67.8 163 67.2 C162.241 67.2 160.7 67.2 159.9 67.1 L159.87 67.1 Z" sketch:type="MSShapeGroup" class="dark" />
      <path d="M65 4 C68.56 4.2 72 5.2 75.1 7.1 C72.29 9 69.3 10.5 66.2 11.9 C65.919 9.9 65.3 6 65 4" sketch:type="MSShapeGroup" class="dark" />
      <path d="M522.681693 23.9 C531.081693 16.2 542.2 13.1 552.3 8.3 C564.351693 6.3 574.3 15.7 581.3 24.2 C572.851693 25.3 564.3 21.8 556.1 25 C552.711693 25.7 551.8 29.6 550.1 32.1 C545.391693 40.3 544.2 49.9 542.9 59.2 C543.081693 70.8 548.8 81.5 548.2 93.2 C549.360693 102 542.7 108.4 537.8 114.7 C541.991693 118.5 546.9 121.8 550.1 126.5 C544.730693 125.7 540.6 122.1 536.2 119.3 C531.551693 116.2 526.8 113.5 522.2 110.4 C525.310693 105.1 531.8 105.8 537 104.7 C543.301693 101.2 542.3 93.2 541.8 87.3 C540.430693 79.6 538.4 72 537.2 64.3 C535.641693 52.9 538.9 41.5 543.2 31.1 C546.400693 23 555.1 20.1 561.7 15.5 C557.841693 14.5 553.7 12.8 549.8 14.6 C543.111693 17.7 535.9 20.3 530.4 25.3 C525.541693 29.4 528.8 36.5 525.3 41.2 C523.921693 42.5 522.2 43.2 520.6 44.1 C517.711693 37.4 515.7 30.4 513.8 23.3 C509.341693 25.4 503.6 27.9 503.5 33.7 C501.741693 38 504.3 42.3 506.5 45.9 C508.971693 49.4 514.3 49 516.7 52.6 C518.191693 60.3 517.3 68.3 517.7 76.1 C518.631693 80.4 522.1 83.8 522.9 88.1 C521.901693 91.9 519.2 94.8 517.3 98.2 C512.031693 96.8 504.5 95.2 503.8 88.6 C504.261693 78.9 514.4 71.8 512.2 61.6 C509.691693 62.9 507.2 64.1 504.5 65.1 C501.991693 56.8 500.7 47.5 494.4 41 C491.701693 37.7 487.1 37.2 483.3 36.2 C479.721693 37.6 475.9 39.7 474.9 43.6 C473.311693 51.2 470.5 60.1 475.5 67 C478.180693 71.8 484.5 75.9 482 82.1 C476.890693 80.7 470.8 79.6 467.7 74.8 C462.520693 67.1 456.2 60.3 449.9 53.5 C447.300693 55.4 444.8 57.5 442.2 59.4 C438.020693 56.8 433.9 53.9 429.1 52.3 C423.610693 50.9 417.9 50.6 412.2 50.4 C414.070693 55.1 416.5 59.6 418.3 64.3 C417.061693 64.6 415.8 65 414.5 65.3 C412.090693 62.3 410.2 58.8 407.2 56.3 C387.331693 50.2 365.2 50.8 346.1 59.8 C354.780693 65.5 365.8 66.7 373.8 73.7 C379.621693 79 386.4 83.8 390.6 90.7 C394.730693 99.5 397.2 108.9 400.6 118 C402.881693 123.5 399.2 129 398.2 134.3 C394.431693 146.9 387.4 158.6 376.8 166.7 C367.940693 173 358.3 178.6 347.4 180.5 C339.331693 182 331.1 184.5 322.8 182.9 C307.711693 181.3 292.8 175.4 282.3 164.1 C274.090693 156.8 271.4 145.8 267.4 136 C249.031693 149 225.4 152.9 203.4 149.9 C188.661693 147.3 175 140.8 162.1 133.5 C157.541693 132.1 152.6 133.5 148 132.8 C150.760693 134.6 153.6 136.4 156.3 138.2 C156.160693 140.9 156 143.5 155.8 146.1 C150.631693 144.6 145.5 142.8 140.1 142.3 C140.590693 138.9 141.2 135.6 142.4 132.4 C126.601693 131.5 111.1 127.5 96.4 122 C89.4616934 119.6 83.8 114.9 77.8 110.9 C73.5216934 116.2 69.5 122.7 62.7 124.7 C53.4016934 127.7 43.7 128.6 34.1 129.9 C30.6816934 126.1 26.6 122.8 23.9 118.5 C21.8516934 113.2 21.5 107.4 20.7 101.8 C14.3316934 103.3 7.5 106.2 1.3 102.5 C2.26069338 97.1 3.3 91.2 6.6 86.6 C12.6016934 80.2 20.4 76.2 27.7 71.7 C23.3916934 69.2 18.7 67.4 14.6 64.7 C9.90169338 58.9 5.5 52 4.8 44.4 C6.60169338 39.7 8.7 35.1 10.5 30.3 C11.7816934 30.3 13 30.2 14.3 30.1 C17.2606934 36.7 21.4 43.1 22.1 50.5 C18.7106934 50.4 15.3 50.3 11.9 50.8 C15.2206934 54.7 17.7 59.5 21.9 62.5 C31.7216934 70.5 44.9 70.1 56.5 73.6 C55.8416934 75.8 55.2 78.1 54.5 80.2 C45.2916934 79.2 35.9 76.4 26.6 78.7 C19.7806934 81.3 14.3 86.8 11.6 93.6 C21.6216934 93.9 31.6 95.2 41.3 97.8 C41.6716934 99.1 42.5 101.5 42.9 102.8 C39.4816934 103.5 36 103.7 32.7 104.9 C30.8006934 106.4 29.5 108.6 27.8 110.5 C29.9806934 113.5 32.1 116.5 34.3 119.5 C43.6606934 118.9 53.7 119.6 62.3 115.3 C66.5416934 113.7 69.4 109.5 70.2 105.2 C69.7306934 99.9 66.4 95.4 64.7 90.5 C66.3806934 90.2 68.1 89.7 69.9 89.8 C75.4616934 93.1 77.8 99.7 82.2 104.2 C89.8906934 112.1 100.8 115.6 111.5 117.2 C99.1916934 111.1 85 106.3 77.7 93.7 C75.6616934 90.2 73 84 77.5 81.6 C83.5516934 79.6 90.6 81.8 96.1 78.1 C103.681693 74.3 106.4 65.3 107.6 57.5 C106.801693 56.9 106 56.4 105.2 55.8 C101.720693 57.6 98 58.8 94.2 59.8 C94.9006934 50.8 100.1 40.3 94.4 32 C91.7016934 26.6 85.4 25.1 80.2 22.9 C76.5706934 26.7 72.6 30.6 71 35.7 C68.6506934 42.3 70.4 49.2 69.8 55.9 C68.0816934 57.9 64.9 57.9 62.9 59.3 C61.7116934 52.3 61.1 45.2 59.9 38.2 C58.1316934 32.5 52.5 29.5 47.6 26.8 C47.2116934 31 47.6 35.3 47.6 39.5 C41.2316934 38.5 37.8 33 33.1 29.4 C26.5716934 25.6 19.4 23 12.2 20.7 C11.7916934 23 11.5 25.4 11.1 27.7 C4.75069338 24.5 -0.6 19 0.1 11.2 C13.3406934 9.8 24.1 18.6 35.8 23 C40.3006934 22.3 44.4 18.7 49.1 19.3 C55.1916934 21.9 58.9 27.9 63.6 32.3 C69.7416934 28 72.6 19.7 79.6 16.6 C87.0706934 15.8 93.4 21.3 97.4 27.1 C102.751693 33.7 103.7 42.7 108.7 49.6 C113.571693 56.1 114.3 65.4 110.7 72.7 C107.740693 77.2 104.7 82 100 84.8 C95.2616934 87.4 90.2 89.2 85.4 91.5 C91.2816934 102.4 102.5 110.2 114.5 113 C122.350693 115.1 130.3 116.7 138.3 118.4 C138.101693 119.6 137.9 120.8 137.8 122 C131.061693 122 124.5 120.8 117.8 120.5 C128.181693 123.6 139.2 124 149.7 127.1 C142.751693 115.9 137.6 101.9 124.9 96 C122.521693 100 120.2 104.1 117.6 108.1 C104.981693 101.6 111.4 79.7 124.6 78.1 C130.670693 77.6 134.6 72.7 140.1 70.9 C139.921693 76.8 142.7 82.4 142.5 88.3 C136.591693 87.1 131.4 83.8 125.4 83.2 C121.210693 84.4 118.4 87.7 116.3 91.4 C121.251693 91.4 126.2 90.7 131 91.5 C137.341693 95.1 140.6 102 145 107.4 C153.321693 119 164.2 128.8 176.7 135.6 C184.971693 139.6 194.2 140.4 203.1 142.4 C214.540693 144.5 226.4 146.3 238 143.6 C245.781693 141.5 253.2 138.1 260.3 134.3 C264.961693 132 266.7 126.7 269.3 122.5 C268.501693 121.8 267.7 121 267 120.3 C260.311693 125.3 254.5 131.8 246.2 134.2 C234.151693 139.9 220.6 141.4 207.4 139.9 C195.550693 136.9 184.9 129.4 178.3 119.2 C174.221693 111.3 171.3 101.1 175.8 92.8 C179.341693 85.7 187.1 83.4 193.6 79.8 C190.701693 77.6 187.8 75.4 184.9 73.2 C185.441693 72 186 70.8 186.5 69.6 C195.721693 72.4 203 79.2 208.8 86.7 C203.401693 87.5 197.9 87.3 192.5 87.3 C188.731693 88.8 184.4 90.5 182.2 94.2 C179.710693 101.1 181.2 108.5 181.8 115.6 C193.081693 109.6 204.9 104.9 216.4 99.5 C224.951693 95.4 232.1 89.1 239.7 83.6 C231.190693 78.5 221.6 74 215.8 65.5 C212.641693 60.8 217.5 55.7 219.4 51.5 C212.890693 47 205.3 43.2 201.3 36.1 C197.530693 30.2 195.7 22 199.8 15.9 C217.101693 19 234.5 23 252.2 21.8 C263.201693 21 274.2 19.7 285.2 19.2 C299.210693 18.6 313 15.4 327.1 15.9 C332.080693 16.2 337.1 16.4 342.1 15.9 C361.110693 15 379.9 18.8 398.3 22.8 C416.050693 26.2 430.7 37.7 447.8 43 C455.881693 47.4 461.4 55.2 467.1 62.3 C465.980693 51.4 466.6 38.4 476.2 31.2 C482.151693 29.3 488.8 31.2 494.9 31.7 C500.971693 24.9 507.6 17.6 516.8 15.2 C518.741693 18.1 520.8 21 522.7 23.9 L522.681693 23.9 Z M289.180693 24.9 L289.180693 24.9 C274.711693 25 260.7 29.3 246.2 29.2 C231.770693 30 218 24.3 203.6 24.6 C206.050693 33.2 211.3 41.9 219.9 45.4 C228.001693 46.3 236.2 45.4 244.3 46.1 C243.201693 48.3 242.1 51 239.3 51 C232.171693 51.6 226.9 56.5 221.4 60.5 C224.221693 67.1 228.9 72.6 235 76.4 C233.960693 72.1 230.6 66.4 234.8 62.9 C245.150693 55.9 255.8 48.6 268.4 46.6 C269.150693 43.9 269.5 41 270.7 38.5 C272.421693 37 274.7 36.3 276.8 35.4 C278.770693 42.4 282 48.9 284.8 55.6 C274.981693 55.8 264.5 52.6 255.3 57.3 C250.311693 59.7 244.7 61.8 241.2 66.2 C238.111693 70.3 244 73.8 247.1 75.3 C253.741693 77.3 260.9 76.1 267.7 77 C266.350693 80.4 264.2 83.5 262 86.5 C270.500693 93.2 281.9 88.2 289.2 82.2 C292.030693 79.1 296.4 82.3 295.7 86 C293.491693 93.5 287.2 98.6 283.5 105.3 C280.721693 110.5 278.3 115.8 276.4 121.3 C274.081693 128.9 276.3 137 278.8 144.2 C287.511693 142.4 287.4 132.5 290.8 126 C297.831693 130.6 293.6 141.1 300.1 146.3 C310.151693 159.9 329.2 160.9 344.4 158.4 C352.091693 156 359.4 151.3 363.9 144.5 C355.951693 151.2 344.7 153 334.9 149.5 C327.541693 146.1 321 140.5 317.3 133.2 C311.251693 121.4 306.6 107.9 309.8 94.6 C311.881693 85.7 315.3 76.6 322.6 70.6 C331.041693 63.5 339.6 55.8 350.2 52.1 C357.310693 49.1 365 48.1 372.6 46.7 C383.900693 44.9 395.8 48.7 406.8 45.2 C414.801693 42.4 423.4 44.3 431.6 43.9 C428.741693 42 425.8 40.1 422.7 38.7 C402.020693 29.9 380.4 23.2 358.1 20.5 C350.571693 20 343.1 21.5 335.6 21.3 C320.051693 19.5 304.7 24.2 289.2 24.9 L289.180693 24.9 Z M340.750693 65.3 L340.750693 65.3 C340.891693 65.6 341.2 66.3 341.3 66.6 C343.921693 67.2 342.2 63.1 340.8 65.3 L340.750693 65.3 Z M344.080693 66.7 L344.080693 66.7 C347.480693 68.2 350.9 69.8 354.3 71.3 C354.111693 72.5 353.9 73.7 353.7 74.9 C345.951693 73.6 338.4 71.3 330.5 70.8 C324.181693 78.8 316.9 86.8 315.4 97.3 C313.131693 105.3 316.3 113.4 318.4 121.1 C321.681693 132.8 331.2 142.6 343.1 145.4 C351.001693 147.5 359.9 141.2 361 133.2 C360.831693 127.7 359.8 122.2 359.7 116.6 C371.161693 120.4 374.4 135.8 369.9 145.9 C366.681693 154.7 357.5 158.5 350 163 C337.930693 167.4 324.3 167.1 312.1 163.1 C305.221693 160.8 299.7 156 293.5 152.4 C297.411693 158.5 303.8 162.7 310.1 166.2 C321.451693 168.1 333.2 167.7 344.7 166.3 C360.831693 163.1 377 152.2 381.5 135.7 C382.901693 128.4 385.9 120.6 383.2 113.3 C381.310693 107.5 379.2 101.9 376.8 96.4 C372.380693 87.6 364.6 81.3 356.9 75.5 C359.041693 74.9 361.2 74.4 363.3 73.8 C357.141693 70.8 351.1 67.2 344.1 66.7 L344.080693 66.7 Z M363.891693 74.8 L363.891693 74.8 C374.251693 83.7 383.6 94.8 387 108.3 C389.531693 122.4 389.4 138.4 379.9 149.9 C369.790693 161 356.6 169.4 341.9 172.9 C353.421693 170.9 365.9 169 374.8 160.7 C378.271693 156.6 382.2 152.8 385.7 148.7 C395.191693 133 395.1 112.5 387 96.3 C381.751693 87.1 374.5 78 363.9 74.8 L363.891693 74.8 Z M254.101693 81.2 L254.101693 81.2 C236.031693 88.6 221.9 102.9 204.2 111.1 C198.051693 114.4 189.5 114.6 185.2 120.8 C202.711693 116.4 220 109.7 234.4 98.5 C241.041693 92.9 251.1 90.1 254.1 81.2 L254.101693 81.2 Z M242.960693 100.1 L242.960693 100.1 C227.371693 111.6 209.4 119 191.7 126.7 C200.631693 131.8 210.6 136.3 221.2 135.2 C231.211693 135.6 241 132.5 249.5 127.6 C253.520693 125.4 258 123.7 261.1 120.1 C267.761693 112.4 275.1 105 279.6 95.8 C272.031693 95.3 264.5 94.3 257.3 92.1 C252.081693 93.8 247.6 97.2 243 100.1 L242.960693 100.1 Z M282.141693 150.7 L282.141693 150.7 C281.321693 153.6 283.7 155.9 285 158.2 C291.331693 168.5 304.1 172.1 315.4 173.4 C310.730693 171.6 305.8 170.3 301.4 167.9 C293.900693 163.5 288.8 156.1 282.1 150.7 L282.141693 150.7 Z" sketch:type="MSShapeGroup" class="dark" />
      <path d="M621.32473 12.1 C625.27473 10 629.6 8.7 633.8 7 C641.95473 14.1 648.8 22.5 653.9 32.1 C660.62473 29 668.3 27.6 675.2 30.9 C678.01373 25.3 680.2 19 685.3 15.1 C689.65373 12.3 694.9 12.1 699.9 11.2 C699.78373 12.5 699.7 13.8 699.7 15.1 C695.57373 16.9 691.5 18.6 687.6 20.7 C693.54373 21.2 699.8 20.5 705.5 23 C714.39473 28.6 721.9 38.1 721.2 49.2 C718.64473 62.4 716 76.1 717.7 89.6 C718.57373 95 725.1 96 728.7 99 C734.10473 102.3 733.8 109.9 738.1 114.3 C742.49373 118.6 748.1 121.4 753.9 123.4 C766.80473 127.3 779.2 132.8 790.8 139.6 C809.62473 152.8 819 177.8 815.2 200.1 C811.79473 212.6 801.3 221.1 791.8 229.1 C798.56473 228.5 806 227.6 811.3 223 C814.40473 220.1 815.3 215.1 819.1 213 C821.86373 213 824.5 213.9 827.2 214.5 C832.01373 204.8 834.9 193.4 831.6 182.7 C828.88373 173.8 819.3 169.1 817 160 C828.06373 158.7 838.6 166.5 849.5 162.7 C846.74373 155.9 843.9 149 838.6 143.8 C834.39473 139 828.2 137.2 822.7 134.5 C824.58373 130.9 826.6 127.3 828.6 123.8 C827.61473 122.7 826.6 121.7 825.6 120.6 C811.88473 119.7 797.2 124.5 784.3 118.2 C780.61373 116.8 778.8 113 777.8 109.5 C784.50373 108.9 791.2 109.1 797.7 110.9 C803.32373 112.6 809.1 111 814.5 109.2 C820.15373 102.4 827.9 97.9 834 91.7 C836.88473 88.5 832.3 85.9 829.6 85.1 C818.58373 82.7 807.4 83.4 796.3 83.8 C797.96473 81.1 799.2 77.6 802.4 76.3 C813.82373 72.3 825.8 70 837 65.3 C834.08473 63.9 831.1 62.5 828.2 61.1 C833.36473 52.3 840.9 45 845.5 35.8 C842.19473 35.8 838.6 34.5 835.6 36.3 C830.27473 39.6 825.2 43.5 819.1 45.4 C818.37473 42.4 817.7 39.4 816.9 36.4 C812.33473 39.8 808.4 44 804 47.7 C796.28473 53.9 792.5 63.3 786.4 70.9 C785.21473 71.6 782.8 73.1 781.5 73.8 C780.18373 63.6 786.6 54.8 787.3 44.9 C786.48373 40.1 784 35.9 782 31.5 C780.50473 31.5 779 31.4 777.5 31.4 C772.28473 38 769.8 46.2 765.7 53.6 C764.63473 55.7 762 56.1 760 57 C759.11473 52 759.1 46 754.7 42.5 C749.39473 40.5 747.8 46.2 745.4 49.1 C741.78473 54.5 742 61.4 741.4 67.5 C741.25473 69.8 741.1 72.6 743.2 74 C747.66473 77.2 752.4 79.9 756.9 82.8 C755.80373 86.3 755.6 91.6 751.6 93.2 C748.26473 94.4 744.2 95.3 741.1 93.3 C737.16373 87.9 736.8 81.2 735.8 74.8 C735.25473 68.1 733.6 60.8 736.8 54.5 C740.44473 44.8 746.2 35.3 756 30.8 C752.16473 25.9 749.3 18 742.1 17.8 C736.68473 21.7 737.3 30 734.1 35.7 C733.41473 35.6 732 35.4 731.3 35.3 C728.18473 26 719.4 21.3 712.9 14.7 C719.29473 13.7 724.9 17 730.4 19.7 C733.94473 15.4 736.5 7.6 743.7 9.6 C750.44473 14.3 756.1 20.5 761.2 27 C763.13473 31.6 763.3 36.7 764 41.7 C767.47373 36.5 769.7 30.3 774.3 26 C781.28473 22 786.5 30.7 792 33.6 C800.71473 31 807.8 24.6 816 20.7 C827.37473 15.2 839.8 12 852.3 10.2 C876.42473 8.6 900.7 7.6 924.9 8.5 C937.29373 8.6 949.1 13 961.4 14.2 C982.80473 17.9 1004.4 21.2 1026.2 21.1 C1029.02473 21.5 1029.8 18.2 1031.5 16.7 C1040.47473 19.9 1048.2 13.2 1055.8 9.6 C1060.91373 10.3 1059.9 16.9 1058.7 20.2 C1057.05373 30.5 1046.5 34.6 1038.3 38.8 C1041.22473 42.4 1045.9 47.3 1042.6 52.2 C1024.01473 63.8 1000 60.1 981.6 50 C979.11473 48 976.2 49.4 973.6 50.2 C983.79373 56.4 992.2 65.4 1003.2 70.2 C1019.41473 76.9 1034 87.2 1050.8 92.4 C1062.07473 95.3 1072 101.6 1083.1 105 C1083.98473 100.4 1084.7 95.7 1084.4 91 C1079.91473 80.7 1068.3 75.9 1057.7 76.5 C1052.42473 77.9 1047.1 79.3 1041.7 79.7 C1041.10473 69.5 1051.5 64.2 1059.7 61.4 C1068.68373 57.6 1078.6 60.4 1087.5 56.7 C1087.78373 58.6 1088.3 62.4 1088.5 64.4 C1092.10473 60.3 1096.4 56.3 1096.9 50.6 C1100.43373 38.4 1109 28.2 1118 19.6 C1125.54373 10.6 1138.9 12.7 1149.3 11.9 C1153.43373 11.1 1160.4 13.8 1157.8 19.5 C1157.68473 21.8 1154.3 22.3 1152.8 23.5 C1148.20373 26.5 1142 24.8 1137.7 28.3 C1130.89373 33.3 1123.2 38.2 1119.7 46.3 C1118.44473 51.1 1119.9 56.1 1119.8 61 C1129.93473 61.8 1143.3 62.7 1148.6 73 C1151.21473 76.4 1152.7 81 1151.5 85.2 C1150.23473 88.4 1147.9 91 1146.1 93.8 C1143.86473 90.3 1143.2 86 1140.5 82.8 C1134.39473 80.4 1127.5 82.2 1122.6 86.3 C1117.11473 92.1 1113.6 99.3 1109.6 106.1 C1110.44473 106.9 1111.3 107.7 1112.2 108.5 C1119.44473 108.5 1126.7 108.1 1134 107.5 C1133.77473 108.7 1133.6 110 1133.4 111.2 C1124.00473 112.1 1114.5 112.1 1105.1 112.2 C1108.13473 114.5 1111.4 116.4 1114.4 118.6 C1109.51473 119.7 1104.3 119.8 1099.6 121.5 C1091.83473 126.5 1086.7 134.8 1078.7 139.4 C1063.67473 149.7 1044.5 150.4 1027 149.2 C1009.96473 146.9 994.9 138 980.6 129.2 C976.97473 141.3 969.7 151.9 962.2 161.9 C954.13373 172 941.3 175.2 929.4 178 C914.99373 181.2 899.3 181.1 885.8 174.6 C861.79473 164 844.8 137.4 848.3 110.9 C850.16373 98 857.6 86.5 867.3 78 C877.71373 67.6 892.6 64.7 905.6 58.9 C890.92373 47.1 872.1 42.9 853.9 40.6 C850.98373 40.6 849.1 43.1 847.5 45.2 C844.41473 49.5 841.7 54 839.4 58.8 C842.27473 59.9 845.1 61.1 847.9 62.3 C847.88473 63.8 847.9 65.3 847.9 66.7 C839.45473 72.2 829.5 74.2 819.9 76.8 C827.46373 79.5 834.6 83.2 841.8 86.7 C837.92473 98.4 828.8 107.1 821.2 116.4 C826.84473 119 832.8 121 838.4 123.9 C836.63473 126.2 834.4 128.2 833.1 130.8 C832.83373 133.1 835.3 134.3 836.7 135.7 C848.08473 142.9 853.8 156 857.1 168.5 C847.82373 168.5 838.6 168.7 829.3 168 C833.85473 175.7 840.4 183.1 839.8 192.6 C840.75373 201.9 836.8 211 832.1 218.7 C822.87473 224.1 813.8 230.2 803.4 233 C794.79373 234.7 786.4 230.9 778.5 227.8 C772.93473 225.5 766.3 222.2 765.6 215.4 C773.09473 218.5 780.1 224.1 788.8 222.6 C798.06373 220.3 802.9 211.3 806.6 203.4 C809.49473 194.6 811.4 184.8 809 175.6 C806.06473 159.8 794 147.3 779.9 140.5 C766.42373 133.1 751.3 129.6 737.8 122.4 C734.40473 121.1 730.9 117.7 727 119.6 C707.53373 127 691.1 140.9 677.9 156.8 C682.74473 154.4 687.4 151.5 692.3 149.2 C704.15473 144.2 716.9 142.6 729.5 141.2 C746.53473 139.8 764.7 143.2 778.3 154 C788.54473 160.4 798.5 168.4 803.6 179.7 C804.37473 182.4 803.6 185.3 803.5 188.1 C794.09373 181.6 784.7 174.6 773.1 172.5 C771.76473 176.2 770.5 179.8 768.9 183.4 C753.49373 183 745.1 168.3 731.2 164 C726.03373 161.5 720.2 163.5 715.3 165.6 C727.64473 169 740.9 172.6 749.7 182.7 C754.20473 190.3 757.4 199.9 754 208.6 C750.64473 219 740.6 228.6 729 227.1 C723.05473 226.4 717.4 224 711.8 222 C710.15473 225.3 708.5 228.7 706.8 232 C691.01473 232.3 675.8 220.7 672 205.5 C670.86473 200.2 670.9 194.7 670.5 189.2 C654.00373 202.5 642.8 221.9 640.5 243 C658.80473 246 677.7 241.2 696 245.4 C704.60473 248.2 707.6 259.3 703.1 266.8 C699.12473 270.9 693.7 273.9 687.9 273.4 C672.92473 273.8 658 273.2 643.1 272.1 C643.30373 273.4 643.5 274.8 643.8 276.1 C654.44473 276.8 668.2 276.2 674.9 286.4 C678.80373 294.5 679.5 303.8 680.4 312.6 C673.54473 315.3 666.2 316.3 659 314.9 C656.25373 321.9 652.9 328.8 648.2 334.8 C645.03373 338.7 642.1 344.9 635.8 343.6 C628.79473 343.6 624.3 338.1 619.8 333.6 C615.11473 329.1 611.6 323.6 608.8 317.8 C604.10473 318 598.3 320.7 594.1 317.3 C591.61373 314.6 589.7 311.3 588.6 307.8 C585.46473 297.2 592.1 286.3 600.6 280.4 C607.31473 277 615.5 277.8 621.9 273.7 C602.86373 267.4 583.1 273.7 563.8 270.7 C553.78473 269.6 548.8 254.7 556.1 247.8 C558.64473 244.8 562.5 243.6 566.3 243.1 C580.54473 241.8 594.9 243.1 609.2 242.8 C606.82373 232.1 602 222.1 596.8 212.6 C594.84373 208.8 592.2 205.6 589.1 202.8 C587.87473 212.3 585.2 222.8 576.8 228.5 C571.28473 233.9 563.4 235.9 555.9 235.6 C552.02473 235 550.4 231 548.5 228.1 C536.39473 233.1 520.2 233 511.3 222.1 C505.50373 211.2 507.1 197.1 514.7 187.4 C518.78473 180.4 526.4 177.1 533.2 173.2 C517.49373 172.1 506.2 186.3 491.4 189.2 C490.53473 188.1 489.7 187.1 488.8 186.1 C489.04473 181.5 490.5 176.9 490 172.3 C476.40373 174.6 467.5 186.2 455.6 192 C454.31473 186.7 457.3 181.6 459.4 177 C471.61373 158.2 493.9 146.5 516.4 148.2 C500.53373 153.9 481.9 158.1 471 172.1 C480.31473 168.2 490.1 165.8 500.3 166.9 C499.08473 171.1 497.6 175.2 496.2 179.2 C509.08473 175.9 520.1 166.8 533.9 166.6 C541.38373 165.1 548.2 168.9 554.3 172.7 C552.29473 174.2 552.5 179.4 549.2 179.6 C544.36373 180.2 539.5 179.5 534.7 180.4 C525.72373 182.4 518 189.7 515.7 198.6 C513.87473 204.7 512.9 211.9 517.3 217.2 C520.80373 223.3 528.4 224.6 534.9 225.1 C543.87473 225.2 549.3 217.2 556 212.6 C557.13473 218.1 557.5 223.6 558 229.2 C570.71473 228.8 583.4 217.8 582.6 204.7 C582.08473 197 572.9 191.9 575.1 183.9 C579.37473 185.9 583.5 188 587.7 190.2 C586.05373 183.6 581.4 178.4 576.5 174 C568.64473 167.7 561.2 160.6 551.8 156.6 C540.90373 151.1 528.5 151 516.7 148.6 C517.49373 147.6 518.3 146.5 519.1 145.4 C527.60473 145.9 536.6 144.6 544.8 147.6 C548.26373 148.7 551.7 149.8 555.2 150.6 C544.32373 140.8 531.4 133.8 519 126.1 C515.34373 130 512.3 135 507.1 136.8 C493.86473 142 479.1 143 466.7 150.1 C459.37473 153.4 452.8 158.3 447.7 164.4 C442.74373 170.7 441.1 178.9 440.2 186.6 C440.77473 195.8 444.5 204.3 445.6 213.4 C443.11373 211.4 440.3 209.7 438.3 207.2 C432.94473 195.4 432.7 181.7 436.9 169.6 C441.03473 160.1 448.8 152.7 457.2 146.9 C472.16373 137.6 491.2 139 506.3 129.9 C509.80373 126.3 511.4 121.1 515.2 117.8 C521.51473 117.9 526.1 123.1 531.2 126 C556.33473 141.5 578.9 161.9 594.1 187.4 C598.13473 194.1 597.5 202.6 602.1 209.1 C607.07373 217.1 609.9 226.1 613 234.8 C612.96373 222.6 608.1 211.2 604.7 199.7 C601.25473 188.3 593.5 179 587.5 168.8 C582.11473 159.5 573.4 153 566.7 144.7 C562.16373 139.1 556.4 134.7 550.8 130.3 C551.06473 129 551.4 127.7 551.7 126.3 C560.13473 131.8 567.8 138.5 575.4 145 C586.46473 154.8 593.8 167.9 600.7 180.7 C608.63473 195.2 613 211.2 618.3 226.8 C617.40473 200.1 619 173.2 614.7 146.7 C613.15373 138 613.5 128.4 607.4 121.4 C598.46473 126 588.9 131.9 578.3 128.9 C570.04473 126 561.4 120.5 558.5 111.9 C555.48373 106.5 563.1 102.7 560.6 97.7 C557.49473 90.9 555.3 83.4 556.2 75.9 C557.19373 69.9 558.3 64 559.2 58 C571.72473 58 582.8 65.1 593.2 71.4 C589.71373 64.8 585.2 58.5 584.5 50.9 C583.35473 42.9 585.9 35.1 588.8 27.7 C595.82373 27.5 601.6 31.5 606.6 36 C611.21473 27.9 615.1 19.2 621.3 12.1 L621.32473 12.1 Z M814.38473 29.1 L814.38473 29.1 C807.68373 32.5 800.4 35.2 794.9 40.4 C793.87473 43.4 794.2 46.7 793.9 49.8 C804.83473 43 811.4 29.9 824.6 26.7 C825.02473 28.4 825.8 31.9 826.2 33.7 C831.77473 32.1 837.2 29.6 842.9 28.8 C848.96473 28.2 853.7 32.5 859.2 34 C867.39473 36.3 875.9 37.5 884 40.3 C896.77473 43.4 907 52.2 916.4 60.9 C926.35473 70.7 934.7 84.4 932.3 98.9 C931.62473 107.6 926.3 115 920.9 121.6 C914.63473 129 904 132.1 894.6 129.7 C890.17373 127.7 886.2 125 881.8 123 C883.90373 129.6 887.1 136.3 892.9 140.4 C900.67373 144.7 909.9 147.9 918.9 145.6 C928.58473 142.9 932.2 132 941 127.7 C939.58473 136.8 933.6 144.6 934 153.9 C940.81473 151.2 946.4 146.3 951.6 141.2 C955.60473 137.3 959 132.2 959 126.3 C961.94473 114 960.8 101.3 956.7 89.4 C964.02373 90.9 970.5 96.3 978.4 94.9 C984.23473 93.9 990.8 90.5 992.5 84.4 C990.87473 72 981.5 61.1 969.6 57.2 C964.87473 56.9 960.2 57 955.5 56.9 C956.55473 50.9 962.7 48.8 966.8 45.5 C966.83473 44.7 966.8 43.3 966.8 42.5 C955.88473 35.9 943.6 43.8 932.2 44.1 C923.74373 44.3 918.6 36.3 916.7 29.1 C922.84373 27.1 929.7 27.1 935.7 29.8 C943.13473 33.4 951.8 31.9 959.7 34 C971.87473 37.3 982.8 43.9 994.3 48.9 C1007.59373 52.5 1023.3 55.3 1035.7 47.5 C1030.94473 41.5 1024.9 36.8 1018.7 32.4 C1019.05473 31.4 1019.5 30.4 1019.9 29.4 C1025.76373 30.3 1031.6 31.8 1037.6 31.1 C1043.19473 29.4 1049.7 27 1051.9 21.1 C1022.60473 30.9 991.7 24.5 961.9 20.4 C947.23473 17.8 932.6 14.8 917.7 13.9 C907.22373 13.8 896.8 14.7 886.3 15.2 C877.51373 15.5 868.8 13.6 860 14.1 C844.24473 17 828.7 21.8 814.4 29.1 L814.38473 29.1 Z M611.50473 50.6 L611.50473 50.6 C605.56473 45.5 601.5 37.9 593.6 35.6 C591.58473 41.9 589.7 48.7 592.6 55 C596.22373 64.1 601.5 72.4 606.8 80.6 C611.36473 86.6 609.3 94.2 608.1 101.1 C604.26473 99.5 599.4 99.2 596.4 96.1 C594.34373 92.2 594.7 87.6 592.7 83.7 C590.77473 80.4 588.9 76.9 585.8 74.7 C579.79473 69.8 573.4 64.9 565.6 63.7 C563.02473 72.8 563.4 82.5 564.5 91.9 C566.06473 98.7 572.2 102.9 576.5 108 C572.43473 108.5 568.3 109.1 564.2 109.8 C567.43473 118 575.9 123.9 584.9 123.4 C594.10473 124.9 598.4 115.9 604.1 110.6 C611.08473 111.7 614.5 119.5 617.3 125.2 C622.31473 141.8 622.5 159.6 622.5 176.9 C623.27473 190.9 623.5 204.9 624.4 218.9 C626.32473 201.6 628 184.2 630.2 166.9 C634.13473 148.5 636.1 129.6 642.7 111.9 C653.36473 114.5 662.7 121.5 673.9 122.2 C679.67473 123 685 120.2 689 116.2 C684.33473 113.7 679 113.1 673.8 112.3 C673.89473 111.2 674 110 674 108.9 C687.56473 101 698 85.1 694.4 68.9 C694.00473 65.9 691.6 61.8 688 62.8 C681.66473 64.7 673.8 64.4 669 69.7 C660.54373 77.5 657.1 90.4 645.8 95.1 C643.71373 92 640.6 89 642 84.8 C643.39473 80.2 646 76.3 649.2 72.8 C659.28373 62.3 665.5 48.2 667.3 33.8 C658.98373 33.8 657.7 42.2 653.4 47.1 C652.42473 48.6 650.5 48.6 648.9 48.7 C646.08473 42.6 647 35.3 644.1 29.2 C640.27473 23.1 634.5 18.6 629.5 13.6 C617.90473 22.1 612.8 36.7 611.5 50.6 L611.50473 50.6 Z M1128.52473 20.7 L1128.52473 20.7 C1127.34373 22 1129.4 24 1130.6 22.9 C1131.90473 21.6 1129.8 19.5 1128.5 20.7 L1128.52473 20.7 Z M690.33473 26.9 L690.33473 26.9 C686.50473 29.7 684.4 34.1 681.5 37.8 C679.27473 37.1 677.1 36.4 674.9 35.6 C672.75373 46.1 668 55.7 663.5 65.3 C674.30373 59.8 686 56.3 698.3 57.1 C701.68473 65.6 701.4 75.1 700.2 84.1 C698.23473 92.7 692.3 99.4 687.8 106.8 C690.24373 109.5 693.3 111.5 696.1 113.8 C694.83473 117 693.5 120 692.2 123.1 C700.58473 117.4 708.3 110.7 716.2 104.3 C714.38473 99.1 712.1 93.9 711.1 88.4 C710.15473 75.9 713.3 63.6 714.2 51.2 C715.23373 43.7 711.2 36.4 706.3 31.1 C701.67473 28.1 696 25.7 690.3 26.9 L690.33473 26.9 Z M1122.14473 26.8 L1122.14473 26.8 C1120.69473 28.1 1122.8 30.2 1124 28.7 C1125.51373 27.5 1123.4 25.4 1122.1 26.8 L1122.14473 26.8 Z M1114.03373 32.8 L1114.03373 32.8 C1111.32373 33.8 1112.1 37.1 1114.7 37.3 C1117.36473 36.3 1116.6 33 1114 32.8 L1114.03373 32.8 Z M1104.60473 46 L1104.60473 46 C1104.79473 46.8 1105.2 48.4 1105.3 49.2 C1107.08473 49.1 1110.6 48.9 1112.3 48.8 C1111.73473 47.5 1111.2 46.1 1110.4 44.9 C1108.43373 45 1106.5 45.6 1104.6 46 L1104.60473 46 Z M1104.52473 60.8 L1104.52473 60.8 C1103.34373 62 1105.4 64 1106.6 62.9 C1107.90473 61.6 1105.8 59.5 1104.5 60.8 L1104.52473 60.8 Z M908.80373 62.5 L908.80373 62.5 C906.49373 64.3 904.2 66.1 901.8 67.8 C905.38373 68 908.9 68.2 912.6 68 C911.47373 66.1 910.1 64.3 908.8 62.5 L908.80373 62.5 Z M1064.35473 66.2 L1064.35473 66.2 C1061.07373 67.1 1058.3 69.2 1055.4 71 C1062.35473 72 1069.8 71.4 1076.4 74.1 C1082.65373 79.1 1089.8 85.3 1090.3 93.9 C1091.11373 106.9 1083.4 118.5 1074.3 127 C1062.15473 137.9 1045.5 141.7 1029.6 142.5 C1042.52473 142.7 1056 142.1 1067.9 136.7 C1082.86373 131.5 1094.1 119.2 1102.3 106.1 C1107.01373 96.4 1113.7 87.9 1120.2 79.4 C1118.20473 75.7 1116.6 71.8 1115.5 67.9 C1107.92473 73.4 1107 83.6 1103.7 91.7 C1101.41373 90.2 1098.5 89 1097.3 86.3 C1094.52373 80.1 1090.8 74.3 1088.2 68 C1080.23473 67.7 1072.4 65 1064.4 66.2 L1064.35473 66.2 Z M1127.31373 67 L1127.31373 67 C1125.80373 70.5 1124.4 74.1 1122.5 77.4 C1130.23473 77 1138 77 1145.8 77 C1141.40473 71 1134.6 67.4 1127.3 67 L1127.31373 67 Z M909.32473 72.2 L909.32473 72.2 C899.80373 73.6 890.7 77.1 881.9 80.8 C876.04473 83.5 871.8 88.8 868.6 94.2 C864.87473 103.9 860.4 114.2 862.6 124.9 C865.08373 137.1 871.6 149.3 882.7 155.8 C895.45373 166.4 913.4 165.8 928.8 163.2 C927.71473 159.6 928.1 155.1 925.1 152.4 C912.40373 150 896.1 151.9 886.9 140.5 C879.55473 134.3 875.6 125 875.2 115.5 C875.64473 108.8 877.8 101.5 883.7 97.5 C884.41473 102.8 884.2 108 884.7 113.3 C886.93473 120.8 895.1 127.3 903.2 125 C914.13473 122.6 921.6 112.7 924.7 102.5 C927.39473 94.3 923.4 86.1 920.9 78.5 C920.51373 72.6 913.8 71.6 909.3 72.2 L909.32473 72.2 Z M998.38373 74.7 L998.38373 74.7 C998.52373 75 998.8 75.6 999 75.9 C1001.54473 76.6 999.8 72.5 998.4 74.7 L998.38373 74.7 Z M868.14473 82.8 L868.14473 82.8 C866.69473 84.1 868.8 86.2 870 84.7 C871.51373 83.5 869.4 81.4 868.1 82.8 L868.14473 82.8 Z M1000.84373 84.7 L1000.84373 84.7 C997.45473 93.4 989.9 99.9 981.6 103.8 C985.40473 109.5 989.7 114.9 994.5 119.8 C1000.99373 125.3 1009 128.4 1016.7 131.8 C1036.35473 140.4 1060.6 134.2 1074.9 118.6 C1074.86473 117.8 1074.8 116.4 1074.7 115.7 C1063.39373 110.9 1051.8 106.6 1040.5 101.9 C1035.44473 99.9 1032 95.2 1026.7 93.8 C1017.79473 91.6 1009.2 88.4 1000.8 84.7 L1000.84373 84.7 Z M745.97373 87.1 L745.97373 87.1 C743.67473 90.5 749.9 87.8 746 87.1 L745.97373 87.1 Z M864.14473 86.7 L864.14473 86.7 C861.22473 94.6 855.6 101.4 854 109.8 C852.15473 116.9 851.2 124.7 854.7 131.4 C859.57473 142.4 863.4 155.7 874.6 162 C880.57373 166.5 887.3 170.3 894.8 171.7 C909.25473 174.3 923.9 171.3 938.2 168.7 C944.97473 167.2 949.4 161.4 954.2 156.9 C959.24373 151.6 964.9 146.8 969 140.8 C971.90473 134 973.6 126.8 974.4 119.4 C974.00473 113.7 972.3 108 970.5 102.6 C965.98473 111.6 968.4 122.4 965.2 131.9 C963.50473 136 962.5 140.7 959.4 144.1 C956.30473 146.8 952.5 148.5 949.3 151.1 C945.65473 154.6 944.5 159.9 940.5 163 C933.47373 167.6 924.9 169.9 916.5 169.2 C906.13373 168.7 895.4 167.8 885.7 163.7 C876.11473 158.4 868.1 150.4 862.2 141.2 C859.13473 136.2 855.7 130.8 856.7 124.6 C855.52473 111.1 859.7 97.8 867.3 86.8 C866.52373 86.7 864.9 86.7 864.1 86.7 L864.14473 86.7 Z M705.83473 117.5 L705.83473 117.5 C693.08473 128 681.5 139.8 670.2 151.8 C661.50373 161.8 655.8 173.8 647.8 184.3 C647.39473 181.3 647.4 178.2 648.8 175.4 C653.32473 165.3 660.9 157.1 667.8 148.5 C674.20473 140.2 681.9 133.1 689 125.5 C683.15473 126.4 677.4 128.7 671.3 127.9 C662.50473 127.3 654.6 122.8 645.9 121.7 C637.34373 150.6 631.1 180.7 632.1 210.9 C634.17473 208 636.2 205 638.4 202.2 C638.99373 204.3 639.6 206.4 640.2 208.6 C648.40373 193.1 653.8 175.7 666.1 162.8 C673.07373 155.4 678.7 146.8 686.4 140.1 C697.62473 127.9 712.1 119.6 727 112.6 C726.69473 110.9 726.1 107.5 725.8 105.8 C718.16473 107.7 711.6 112.2 705.8 117.5 L705.83473 117.5 Z M979.88473 115 L979.88473 115 C986.26473 130.6 1004.5 135.1 1019.3 138.3 C1011.61373 134.1 1003.5 130.9 995.4 127.6 C989.70373 124 985.4 118.8 979.9 115 L979.88473 115 Z M689.74373 156.5 L689.74373 156.5 C683.52373 160 678.4 165.1 673 169.7 C665.86373 176.2 659.1 183.6 655.3 192.7 C662.10473 189.1 667.7 183.7 674.5 180.2 C677.73373 178.6 681.3 179.7 684.6 180.2 C682.69473 184.8 679.8 188.9 678 193.6 C677.14473 202 679 211.2 684.8 217.6 C688.45373 223.6 696.4 223.6 702.5 225.5 C702.77473 219.8 703.1 214.1 703.5 208.4 C714.26473 212.5 722.9 223.7 735.4 221.1 C741.29473 220.1 744.2 214.2 746.8 209.5 C754.84473 197 745.6 178.9 731.7 175.7 C723.02473 173.1 713.9 174.5 705.1 173 C705.83473 165.7 711.1 158.8 718.2 156.9 C726.10473 156.3 733.6 159.6 740.6 162.8 C748.72473 166.5 754.6 173.9 763 177 C764.33473 170.9 760.9 165.2 759.6 159.5 C766.38473 159.7 771.7 164.5 777.4 167.4 C781.43473 169 785.6 170.2 789.6 171.6 C790.05473 171 790.9 169.8 791.3 169.3 C787.92473 165.7 784.9 161.6 780.5 159.2 C767.56473 153 754.2 147.1 739.7 145.8 C722.53373 145.3 705.1 148.5 689.7 156.5 L689.74373 156.5 Z M632.51473 241.3 L632.51473 241.3 C636.35473 232.4 637.7 222.6 638.3 213 C634.22473 221.8 630.1 231.2 632.5 241.3 L632.51473 241.3 Z M623.46373 247.2 L623.46373 247.2 C608.25373 247.7 593 247.3 577.8 247.5 C573.66473 248 569.1 247.1 565.2 249 C561.88373 251.1 560.7 255.2 559.1 258.6 C568.69473 264.3 580.1 263.3 590.8 263.9 C605.55473 264.2 620.2 266.8 634.9 266.2 C653.57473 265.2 672.3 267.3 690.8 265.4 C699.09373 265.8 699.4 251.7 692.5 250.1 C670.08473 247.9 647.5 247.5 625 248.5 C624.86473 240 624.7 231.6 624.2 223.2 C623.85473 231.2 623.7 239.2 623.5 247.2 L623.46373 247.2 Z M628.01473 271.6 L628.01473 271.6 C626.63473 275 625.4 278.4 623.8 281.7 C621.60473 284.1 618.8 286 616.2 288 C614.27473 286.2 612.4 284.4 610.6 282.6 C602.04373 284.8 594.6 292.4 594.8 301.5 C593.76373 306.1 597 311.6 602.1 310.9 C607.35473 308.5 611.3 303.8 617 302.2 C618.34373 310.2 616.9 319.5 622 326.4 C625.00473 330.5 628.1 335.3 632.9 337.5 C641.81473 335.2 650 327.7 651.1 318.2 C651.20473 312.4 651.5 306.5 652.5 300.7 C659.30473 303 664.4 308.4 670.9 311.4 C672.97373 305.9 674.2 299.8 672.5 294 C669.87473 289.3 665.7 285.3 660.5 284 C654.29473 283.9 649 288.2 642.8 287.6 C636.25473 284.7 633.9 277.4 630.9 271.5 C630.17473 271.5 628.7 271.6 628 271.6 L628.01473 271.6 Z" sketch:type="MSShapeGroup" class="dark" />
      <path d="M780.837381 11 C787.158381 12.9 794.9 13.9 798.5 20.2 C793.908381 22.4 787.4 27.5 783.5 21.5 C779.487381 19.2 779.4 14.8 780.8 11" sketch:type="MSShapeGroup" class="dark" />
      <path d="M1235.391 12 C1239.79 12.9 1242.6 16.3 1245.3 19.4 C1250.201 17.6 1254.8 15.2 1260 14.2 C1261.09 18 1263.7 21.6 1263.4 25.6 C1261.491 30.6 1257.1 34 1253.8 38 C1257.341 37.1 1260.8 35.5 1264.4 35.1 C1265 36.5 1266.2 39.3 1266.7 40.7 C1263.721 41.6 1260.7 42.5 1257.7 43.3 C1258.501 45.6 1259.4 47.9 1260.2 50.1 C1257.571 51.9 1255.3 54.2 1252.4 55.4 C1249.471 55.4 1246.9 55 1244.1 54.4 C1247.661 51.4 1251.4 48.5 1255 45.5 C1251.781 45 1249.1 44.6 1246.1 44 C1248.98 37 1253 30.6 1255.3 23.4 C1253.581 22.7 1251.9 22 1250.3 21.3 C1245.811 25.3 1241.2 29.1 1236 31.9 C1234.421 27.6 1235.3 21.6 1230 19.4 C1231.761 16.9 1233.6 14.5 1235.4 12" sketch:type="MSShapeGroup" class="dark" />
      <path d="M442.767505 15 C446.787505 13.1 451.5 14.3 455.6 15.2 C454.437505 19.4 454.3 25 450.2 27.6 C445.817505 28.9 441.6 26.8 438.3 24.2 C434.617505 20.3 439.7 16.6 442.8 15" sketch:type="MSShapeGroup" class="dark" />
      <path d="M1181.46 15.5 C1188.641 13.7 1195.6 17 1201.8 20.3 C1210.351 24.9 1210.9 35.6 1212.2 44 C1212.911 44 1214.4 44.1 1215.1 44.1 C1217.94 38.2 1219.6 31.1 1225.7 27.6 C1224.19 36.7 1221.9 46.5 1214.9 52.9 C1211.56 56.9 1206.1 55.3 1201.6 54.9 C1202.451 46.8 1208.8 37.5 1203 30.1 C1200.4 25.5 1196.5 19.7 1190.2 21.4 C1182.811 22.4 1171.7 23 1170.2 32.3 C1169.851 38.6 1171.7 44.7 1173 50.8 C1172.181 51.6 1171.4 52.3 1170.7 53.1 C1167.981 52 1165.2 50.8 1162.5 49.7 C1161.411 52.7 1160.4 55.8 1160 59 C1163.131 63.5 1167.4 67.8 1172.9 69.2 C1177.98 70.7 1183.2 71.9 1188.2 74 C1184.27 83.7 1177 91.7 1168.2 97.2 C1158.99 104.6 1148.1 110.8 1136 111.1 C1138.781 105.4 1145.5 104.9 1150.6 102.5 C1161.67 97.4 1170.8 88.8 1178.6 79.6 C1169.961 75.1 1159.3 71.5 1155.5 61.5 C1152.591 56.5 1155.9 50.9 1159 47 C1163.94 41.4 1162.1 33.2 1165.9 27 C1168.011 20.3 1174.9 16.5 1181.5 15.5" sketch:type="MSShapeGroup" class="dark" />
      <path d="M309.69 39.8 C313.089 34.4 319.6 32 325.8 33.4 C328.899 34.5 331.9 37.4 331.9 40.9 C330.859 46.7 324.4 49.4 319.1 49 C311.96 50.6 306.1 45.8 300 43.2 C293.769 39.8 286.6 38.7 279.6 38.4 C279.37 37.2 279.2 35.9 279 34.7 C289.479 34.2 299.7 36.8 309.7 39.8 L309.69 39.8 Z M315.62 43.3 L315.62 43.3 C318.21 42.8 321 42.4 323.6 41.8 C320.839 42.2 318.3 42.6 315.6 43.3 L315.62 43.3 Z" sketch:type="MSShapeGroup" class="dark" />
      <path d="M180.389 34.7 C186.4 32.3 192.6 36.5 195.3 41.6 C196.63 47.2 191.1 53.7 185.2 51.7 C181.79 50.5 179 48 176 46.1 C177.11 42.6 176 36.4 180.4 34.7 L180.389 34.7 Z M183.76 41.2 L183.76 41.2 L183.76 44.2 L186.759 44.2 L186.759 41.2 L183.76 41.2 L183.76 41.2 Z" sketch:type="MSShapeGroup" class="dark" />
      <path d="M1072.00246 33 C1076.02246 34.5 1081.9 32.7 1085.2 36 C1086.77246 39.9 1086.2 44.2 1087.1 48.2 C1082.07146 48.8 1076 50.5 1072.2 46.1 C1068.08246 42.7 1070.8 37.2 1072 33" sketch:type="MSShapeGroup" class="dark" />
      <path d="M1235.7 55.4 C1238.989 54.3 1242.1 55.7 1245 57.1 C1239.61 60.1 1233.8 62.3 1228.2 64.9 C1231.84 66.1 1236 67.2 1237.7 71.3 C1229.929 72.4 1222 73.1 1214.2 72.9 C1211.33 73 1209.8 70.2 1208 68.4 C1216.069 62.1 1225.5 57.2 1235.7 55.4" sketch:type="MSShapeGroup" class="dark" />
      <path d="M435.637608 65.7 C436.068608 67.5 436.5 69.3 436.9 71 C430.358608 72.2 423.7 72.8 417 73.7 C421.058608 75.8 424.8 79.1 429.6 79.1 C438.138608 79.2 446.4 76 455 76.3 C461.518608 77.4 470.4 78.4 472 86.4 C466.857608 86.4 461.7 86.2 456.6 85.9 C451.667608 85.7 447.8 89.4 443.7 91.6 C447.847608 96.9 453.8 99 460.3 99.4 C458.658608 101.9 456.9 104.3 455.2 106.8 C463.168608 111.3 473 113.3 481.9 110.1 C483.997608 107.6 484.5 103 488.3 102.2 C491.168608 101.7 494.4 101.1 497.4 102 C499.807608 103.7 500.4 106.9 502 109.2 C490.508608 115.8 477.1 119.5 463.9 117.3 C457.748608 115.1 452.1 111.8 446.1 109.2 C446.788608 111.8 447.2 114.3 447.9 117 C438.068608 120.5 426.4 121.8 419.7 130.6 C418.248608 132.7 416.7 135 416.8 137.6 C417.488608 141.8 422.3 144.9 426.5 143.1 C433.787608 141.2 440.9 137.6 448.7 138.1 C448.658608 139 448.6 140.8 448.6 141.7 C441.267608 145.7 434.1 149.9 426.9 154.1 C421.797608 157.2 417.3 161.7 415.6 167.6 C413.398608 176.4 411.3 186.1 415.4 194.7 C416.258608 194.7 418 194.7 418.8 194.7 C420.157608 191.7 421.4 188.7 422.6 185.7 C423.498608 185.7 425.2 185.6 426.1 185.6 C427.028608 190.9 427 196.2 428.2 201.5 C433.028608 213.6 444.7 221.3 456.8 225.2 C453.837608 221.7 449.3 219.1 448.5 214.3 C457.908608 216.7 467 221.3 477 219.9 C483.178608 218.6 488.2 214.3 494.6 213.5 C490.728608 220.9 484.5 227.5 476.6 230.6 C461.388608 234 443.5 230.5 432.8 218.5 C428.518608 214.4 425.7 209 421.9 204.5 C419.367608 203.9 416.7 204.4 414.2 204.5 C407.858608 197.5 406.8 187.8 407 178.8 C407.708608 168.3 413.3 159.3 418.9 150.8 C416.287608 148.3 413.7 145.9 411.1 143.4 C411.987608 136.6 413 129.2 418.4 124.4 C422.817608 119.5 429.8 118.3 434.7 114.1 C436.447608 109.8 438.8 105.8 442.6 103.1 C440.477608 99 438.3 94.9 436.3 90.7 C438.387608 88 440.5 85.4 442.7 82.7 C435.108608 83.9 427 85.4 419.6 82.8 C415.148608 80.4 411.3 76.7 409 72.3 C407.787608 70 410.2 67.8 412.1 67 C419.568608 63.5 427.8 65.6 435.6 65.7 Z" sketch:type="MSShapeGroup" class="dark" />
      <path d="M1239 69.8 C1241.13 69.2 1243.3 68.6 1245.5 68 C1245.65 70.4 1247.9 73.5 1245.7 75.5 C1242.26 75.7 1240.8 72 1239 69.8" sketch:type="MSShapeGroup" class="dark" />
      <path d="M1247.8075 75 C1255.3775 74.8 1258.1 84.3 1255.6 90 C1251.1075 96.6 1246 103.3 1239 107.4 C1234.4965 110.3 1233.2 116.2 1228.8 119.1 C1217.9265 122.4 1205 119.7 1197.6 110.7 C1191.8265 106 1191.8 98.2 1190.1 91.6 C1182.2775 97.3 1176 105.3 1167.2 109.5 C1158.4265 113.5 1149.7 118.6 1139.9 119.2 C1133.3075 120.1 1126.7 120 1120 120 C1119.9975 118.8 1120 117.7 1120 116.5 C1134.9165 114.6 1150.5 112.9 1163.6 105 C1173.4175 97.8 1182.6 90 1191.8 82.1 C1194.3765 79.7 1198 79.6 1201.3 78.7 C1201.9975 87.3 1198.3 95.8 1200.2 104.2 C1206.7675 111.4 1217.3 114.6 1226.8 111.9 C1225.4375 107.5 1222.9 103.7 1219.1 101.2 C1225.2275 100.8 1231.7 101.9 1237.7 99.9 C1242.1875 97.7 1246.7 94.1 1247.9 89.1 C1249.0175 84.5 1248.6 79.6 1247.8 75" sketch:type="MSShapeGroup" class="dark" />
      <path d="M895 94 C897.17 90.1 901.5 84.2 906.8 86.5 C910.901 87.8 914.7 93.4 911 97.1 C908.061 101.9 902 101.5 897.1 102.4 C896.381 99.6 895.2 96.9 895 94" sketch:type="MSShapeGroup" class="dark" />
      <path d="M331.19 89.7 C338.049 86.4 345.2 95.5 342.1 101.7 C338.27 106.8 331.1 104.5 326 102.8 C327.12 98.8 325.6 91 331.2 89.7" sketch:type="MSShapeGroup" class="dark" />
      <path d="M1014.38016 111.1 C1017.46016 107.3 1023.3 104.2 1028 107.2 C1033.46016 110.2 1028.2 117.3 1026.7 121.2 C1021.94016 120 1011.9 118.7 1014.4 111.1" sketch:type="MSShapeGroup" class="dark" />
      <path d="M238.331 111.3 C241.871 110.4 246.5 108.7 249.4 111.7 C252.801 114.3 250.7 120.7 247.1 122.1 C242.28 127.1 235.6 122.8 231 120.2 C233.171 117.1 234.3 112.4 238.3 111.3 L238.331 111.3 Z M240.27 114.8 L240.27 114.8 C239.001 116 241.1 118.2 242.4 116.9 C243.55 115.7 241.5 113.6 240.3 114.8 L240.27 114.8 Z" sketch:type="MSShapeGroup" class="dark" />
      <path d="M1175.209 113 C1180.69 113.8 1187.9 117.6 1186.6 124.2 C1186.27 130.4 1178.9 131.2 1174.4 132.6 C1172.79 131.3 1169.6 128.6 1168 127.3 C1168.63 121.7 1172.1 117.4 1175.2 113" sketch:type="MSShapeGroup" class="dark" />
      <path d="M981.310717 151.6 C984.560717 144.9 992.9 149.1 997.5 151.9 C994.270717 158.5 988 163.4 981.1 165.8 C979.259717 161.3 977.4 155.8 981.3 151.6" sketch:type="MSShapeGroup" class="dark" />
      <path d="M243.991589 154.5 C249.841589 157 255.3 153.2 261.1 154.1 C261.082589 156.3 261.1 160.5 261.1 162.6 C256.062589 164.1 249.5 168.4 244.7 164.4 C241.392589 162.2 243.9 157.7 244 154.5" sketch:type="MSShapeGroup" class="dark" />
      <path d="M376.440027 195.4 C374.031027 186.8 382 180.3 389.6 179 C391.570027 181.1 393.6 183.2 395.7 185.2 C396.000027 191 393.6 196.1 390.6 200.8 C385.871027 199.7 379.5 200 376.4 195.4" sketch:type="MSShapeGroup" class="dark" />
      <path d="M863.3 188.4 C868.809 186.7 873 190.9 877.4 193.3 C875.21 198 872.9 204.1 867.6 205.8 C863.32 206.2 859.6 204 856 202.2 C856.9 197 858.8 191.5 863.3 188.4" sketch:type="MSShapeGroup" class="dark" />
      <path d="M641 191.4 C642.76 190.6 644.5 189.8 646.3 189 C645.22 191.2 644.1 193.5 643 195.7 C642.319 194.3 641.6 192.9 641 191.4" sketch:type="MSShapeGroup" class="dark" />
      <path d="M589.037879 220 C592.047879 221.2 595.1 222.6 598.2 223.8 C597.097879 227.1 597.8 231.9 594.5 234.2 C591.547879 236.3 586.2 237.4 584.4 233.5 C582.727879 228.2 586.7 224.2 589 220" sketch:type="MSShapeGroup" class="dark" />
      <path d="M653.388644 233.5 C651.079644 227.2 659.6 222.3 664.3 226.6 C668.979644 229.2 665.3 234.9 664.4 238.9 C660.898644 238 654.2 238.6 653.4 233.5" sketch:type="MSShapeGroup" class="dark" />
      <path d="M499.309356 244.6 C502.148356 238.8 509.8 241.6 514.8 240 C516.009356 243.5 518.2 246.7 518.4 250.5 C513.569356 254.3 507 256.3 500.9 255 C496.488356 253.8 495.6 247.5 499.3 244.6" sketch:type="MSShapeGroup" class="dark" />
      <path d="M746.775332 247 C751.584332 247.9 756.8 249.4 759.7 253.6 C759.235332 257.3 758.2 260.8 756.6 264.2 C751.534332 262.9 744.4 265.1 741 260 C740.854332 254.9 744.6 251.2 746.8 247 L746.775332 247 Z M748.555332 255.5 L748.555332 255.5 C747.374332 256.8 749.4 258.8 750.7 257.7 C751.934332 256.4 749.8 254.3 748.6 255.5 L748.555332 255.5 Z" sketch:type="MSShapeGroup" class="dark" />
      <path d="M571.279006 284 C574.559006 285.7 577.7 287.6 581 289.5 C580.299006 294.5 580 301.5 572.8 301.5 C571.719006 295.8 570.4 289.9 571.3 284" sketch:type="MSShapeGroup" class="dark" />
      <path d="M687.111 289.7 C691.431 287.8 695.4 290.2 699 292.2 L699.011 300.1 C695.99 301.5 693.3 303.6 690.1 304.4 C687.6 302.9 685.3 301.2 683 299.5 C684.211 296.3 684.4 292.3 687.1 289.7" sketch:type="MSShapeGroup" class="dark" />
    </g>
  </g>
</svg>
